<svg xmlns="http://www.w3.org/2000/svg" xmlns:xlink="http://www.w3.org/1999/xlink" width="600" height="400" viewBox="0 0 2400 1600">
<defs>
  <clipPath id="clip610">
    <rect x="0" y="0" width="2400" height="1600"></rect>
  </clipPath>
</defs>
<path clip-path="url(#clip610)" d="M0 1600 L2400 1600 L2400 0 L0 0  Z" fill="#ffffff" fill-rule="evenodd" fill-opacity="1"></path>
<defs>
  <clipPath id="clip611">
    <rect x="480" y="0" width="1681" height="1600"></rect>
  </clipPath>
</defs>
<path clip-path="url(#clip610)" d="M219.866 1423.18 L2352.76 1423.18 L2352.76 123.472 L219.866 123.472  Z" fill="#ffffff" fill-rule="evenodd" fill-opacity="1"></path>
<defs>
  <clipPath id="clip612">
    <rect x="219" y="123" width="2134" height="1301"></rect>
  </clipPath>
</defs>
<polyline clip-path="url(#clip612)" style="stroke:#000000; stroke-linecap:round; stroke-linejoin:round; stroke-width:2; stroke-opacity:0.1; fill:none" points="279.22,1423.18 279.22,123.472 "></polyline>
<polyline clip-path="url(#clip612)" style="stroke:#000000; stroke-linecap:round; stroke-linejoin:round; stroke-width:2; stroke-opacity:0.1; fill:none" points="784.788,1423.18 784.788,123.472 "></polyline>
<polyline clip-path="url(#clip612)" style="stroke:#000000; stroke-linecap:round; stroke-linejoin:round; stroke-width:2; stroke-opacity:0.1; fill:none" points="1290.36,1423.18 1290.36,123.472 "></polyline>
<polyline clip-path="url(#clip612)" style="stroke:#000000; stroke-linecap:round; stroke-linejoin:round; stroke-width:2; stroke-opacity:0.1; fill:none" points="1795.92,1423.18 1795.92,123.472 "></polyline>
<polyline clip-path="url(#clip612)" style="stroke:#000000; stroke-linecap:round; stroke-linejoin:round; stroke-width:2; stroke-opacity:0.1; fill:none" points="2301.49,1423.18 2301.49,123.472 "></polyline>
<polyline clip-path="url(#clip612)" style="stroke:#000000; stroke-linecap:round; stroke-linejoin:round; stroke-width:2; stroke-opacity:0.1; fill:none" points="219.866,1261.79 2352.76,1261.79 "></polyline>
<polyline clip-path="url(#clip612)" style="stroke:#000000; stroke-linecap:round; stroke-linejoin:round; stroke-width:2; stroke-opacity:0.1; fill:none" points="219.866,930.14 2352.76,930.14 "></polyline>
<polyline clip-path="url(#clip612)" style="stroke:#000000; stroke-linecap:round; stroke-linejoin:round; stroke-width:2; stroke-opacity:0.1; fill:none" points="219.866,598.494 2352.76,598.494 "></polyline>
<polyline clip-path="url(#clip612)" style="stroke:#000000; stroke-linecap:round; stroke-linejoin:round; stroke-width:2; stroke-opacity:0.1; fill:none" points="219.866,266.848 2352.76,266.848 "></polyline>
<polyline clip-path="url(#clip610)" style="stroke:#000000; stroke-linecap:round; stroke-linejoin:round; stroke-width:4; stroke-opacity:1; fill:none" points="219.866,1423.18 2352.76,1423.18 "></polyline>
<polyline clip-path="url(#clip610)" style="stroke:#000000; stroke-linecap:round; stroke-linejoin:round; stroke-width:4; stroke-opacity:1; fill:none" points="279.22,1423.18 279.22,1404.28 "></polyline>
<polyline clip-path="url(#clip610)" style="stroke:#000000; stroke-linecap:round; stroke-linejoin:round; stroke-width:4; stroke-opacity:1; fill:none" points="784.788,1423.18 784.788,1404.28 "></polyline>
<polyline clip-path="url(#clip610)" style="stroke:#000000; stroke-linecap:round; stroke-linejoin:round; stroke-width:4; stroke-opacity:1; fill:none" points="1290.36,1423.18 1290.36,1404.28 "></polyline>
<polyline clip-path="url(#clip610)" style="stroke:#000000; stroke-linecap:round; stroke-linejoin:round; stroke-width:4; stroke-opacity:1; fill:none" points="1795.92,1423.18 1795.92,1404.28 "></polyline>
<polyline clip-path="url(#clip610)" style="stroke:#000000; stroke-linecap:round; stroke-linejoin:round; stroke-width:4; stroke-opacity:1; fill:none" points="2301.49,1423.18 2301.49,1404.28 "></polyline>
<path clip-path="url(#clip610)" d="M279.22 1454.1 Q275.609 1454.1 273.78 1457.66 Q271.975 1461.2 271.975 1468.33 Q271.975 1475.44 273.78 1479.01 Q275.609 1482.55 279.22 1482.55 Q282.854 1482.55 284.66 1479.01 Q286.488 1475.44 286.488 1468.33 Q286.488 1461.2 284.66 1457.66 Q282.854 1454.1 279.22 1454.1 M279.22 1450.39 Q285.03 1450.39 288.086 1455 Q291.164 1459.58 291.164 1468.33 Q291.164 1477.06 288.086 1481.67 Q285.03 1486.25 279.22 1486.25 Q273.41 1486.25 270.331 1481.67 Q267.276 1477.06 267.276 1468.33 Q267.276 1459.58 270.331 1455 Q273.41 1450.39 279.22 1450.39 Z" fill="#000000" fill-rule="nonzero" fill-opacity="1"></path><path clip-path="url(#clip610)" d="M744.406 1451.02 L762.762 1451.02 L762.762 1454.96 L748.688 1454.96 L748.688 1463.43 Q749.707 1463.08 750.725 1462.92 Q751.744 1462.73 752.762 1462.73 Q758.549 1462.73 761.929 1465.9 Q765.309 1469.08 765.309 1474.49 Q765.309 1480.07 761.837 1483.17 Q758.364 1486.25 752.045 1486.25 Q749.869 1486.25 747.6 1485.88 Q745.355 1485.51 742.948 1484.77 L742.948 1480.07 Q745.031 1481.2 747.253 1481.76 Q749.475 1482.32 751.952 1482.32 Q755.957 1482.32 758.295 1480.21 Q760.633 1478.1 760.633 1474.49 Q760.633 1470.88 758.295 1468.77 Q755.957 1466.67 751.952 1466.67 Q750.077 1466.67 748.202 1467.08 Q746.35 1467.5 744.406 1468.38 L744.406 1451.02 Z" fill="#000000" fill-rule="nonzero" fill-opacity="1"></path><path clip-path="url(#clip610)" d="M784.522 1454.1 Q780.91 1454.1 779.082 1457.66 Q777.276 1461.2 777.276 1468.33 Q777.276 1475.44 779.082 1479.01 Q780.91 1482.55 784.522 1482.55 Q788.156 1482.55 789.961 1479.01 Q791.79 1475.44 791.79 1468.33 Q791.79 1461.2 789.961 1457.66 Q788.156 1454.1 784.522 1454.1 M784.522 1450.39 Q790.332 1450.39 793.387 1455 Q796.466 1459.58 796.466 1468.33 Q796.466 1477.06 793.387 1481.67 Q790.332 1486.25 784.522 1486.25 Q778.711 1486.25 775.633 1481.67 Q772.577 1477.06 772.577 1468.33 Q772.577 1459.58 775.633 1455 Q778.711 1450.39 784.522 1450.39 Z" fill="#000000" fill-rule="nonzero" fill-opacity="1"></path><path clip-path="url(#clip610)" d="M814.683 1454.1 Q811.072 1454.1 809.244 1457.66 Q807.438 1461.2 807.438 1468.33 Q807.438 1475.44 809.244 1479.01 Q811.072 1482.55 814.683 1482.55 Q818.318 1482.55 820.123 1479.01 Q821.952 1475.44 821.952 1468.33 Q821.952 1461.2 820.123 1457.66 Q818.318 1454.1 814.683 1454.1 M814.683 1450.39 Q820.494 1450.39 823.549 1455 Q826.628 1459.58 826.628 1468.33 Q826.628 1477.06 823.549 1481.67 Q820.494 1486.25 814.683 1486.25 Q808.873 1486.25 805.795 1481.67 Q802.739 1477.06 802.739 1468.33 Q802.739 1459.58 805.795 1455 Q808.873 1450.39 814.683 1450.39 Z" fill="#000000" fill-rule="nonzero" fill-opacity="1"></path><path clip-path="url(#clip610)" d="M1234.88 1481.64 L1242.52 1481.64 L1242.52 1455.28 L1234.21 1456.95 L1234.21 1452.69 L1242.47 1451.02 L1247.15 1451.02 L1247.15 1481.64 L1254.79 1481.64 L1254.79 1485.58 L1234.88 1485.58 L1234.88 1481.64 Z" fill="#000000" fill-rule="nonzero" fill-opacity="1"></path><path clip-path="url(#clip610)" d="M1274.23 1454.1 Q1270.62 1454.1 1268.79 1457.66 Q1266.99 1461.2 1266.99 1468.33 Q1266.99 1475.44 1268.79 1479.01 Q1270.62 1482.55 1274.23 1482.55 Q1277.87 1482.55 1279.67 1479.01 Q1281.5 1475.44 1281.5 1468.33 Q1281.5 1461.2 1279.67 1457.66 Q1277.87 1454.1 1274.23 1454.1 M1274.23 1450.39 Q1280.04 1450.39 1283.1 1455 Q1286.18 1459.58 1286.18 1468.33 Q1286.18 1477.06 1283.1 1481.67 Q1280.04 1486.25 1274.23 1486.25 Q1268.42 1486.25 1265.34 1481.67 Q1262.29 1477.06 1262.29 1468.33 Q1262.29 1459.58 1265.34 1455 Q1268.42 1450.39 1274.23 1450.39 Z" fill="#000000" fill-rule="nonzero" fill-opacity="1"></path><path clip-path="url(#clip610)" d="M1304.39 1454.1 Q1300.78 1454.1 1298.96 1457.66 Q1297.15 1461.2 1297.15 1468.33 Q1297.15 1475.44 1298.96 1479.01 Q1300.78 1482.55 1304.39 1482.55 Q1308.03 1482.55 1309.83 1479.01 Q1311.66 1475.44 1311.66 1468.33 Q1311.66 1461.2 1309.83 1457.66 Q1308.03 1454.1 1304.39 1454.1 M1304.39 1450.39 Q1310.21 1450.39 1313.26 1455 Q1316.34 1459.58 1316.34 1468.33 Q1316.34 1477.06 1313.26 1481.67 Q1310.21 1486.25 1304.39 1486.25 Q1298.58 1486.25 1295.51 1481.67 Q1292.45 1477.06 1292.45 1468.33 Q1292.45 1459.58 1295.51 1455 Q1298.58 1450.39 1304.39 1450.39 Z" fill="#000000" fill-rule="nonzero" fill-opacity="1"></path><path clip-path="url(#clip610)" d="M1334.56 1454.1 Q1330.95 1454.1 1329.12 1457.66 Q1327.31 1461.2 1327.31 1468.33 Q1327.31 1475.44 1329.12 1479.01 Q1330.95 1482.55 1334.56 1482.55 Q1338.19 1482.55 1340 1479.01 Q1341.83 1475.44 1341.83 1468.33 Q1341.83 1461.2 1340 1457.66 Q1338.19 1454.1 1334.56 1454.1 M1334.56 1450.39 Q1340.37 1450.39 1343.42 1455 Q1346.5 1459.58 1346.5 1468.33 Q1346.5 1477.06 1343.42 1481.67 Q1340.37 1486.25 1334.56 1486.25 Q1328.75 1486.25 1325.67 1481.67 Q1322.61 1477.06 1322.61 1468.33 Q1322.61 1459.58 1325.67 1455 Q1328.75 1450.39 1334.56 1450.39 Z" fill="#000000" fill-rule="nonzero" fill-opacity="1"></path><path clip-path="url(#clip610)" d="M1740.45 1481.64 L1748.09 1481.64 L1748.09 1455.28 L1739.78 1456.95 L1739.78 1452.69 L1748.04 1451.02 L1752.72 1451.02 L1752.72 1481.64 L1760.36 1481.64 L1760.36 1485.58 L1740.45 1485.58 L1740.45 1481.64 Z" fill="#000000" fill-rule="nonzero" fill-opacity="1"></path><path clip-path="url(#clip610)" d="M1769.85 1451.02 L1788.2 1451.02 L1788.2 1454.96 L1774.13 1454.96 L1774.13 1463.43 Q1775.15 1463.08 1776.17 1462.92 Q1777.19 1462.73 1778.2 1462.73 Q1783.99 1462.73 1787.37 1465.9 Q1790.75 1469.08 1790.75 1474.49 Q1790.75 1480.07 1787.28 1483.17 Q1783.81 1486.25 1777.49 1486.25 Q1775.31 1486.25 1773.04 1485.88 Q1770.8 1485.51 1768.39 1484.77 L1768.39 1480.07 Q1770.47 1481.2 1772.69 1481.76 Q1774.92 1482.32 1777.39 1482.32 Q1781.4 1482.32 1783.74 1480.21 Q1786.07 1478.1 1786.07 1474.49 Q1786.07 1470.88 1783.74 1468.77 Q1781.4 1466.67 1777.39 1466.67 Q1775.52 1466.67 1773.64 1467.08 Q1771.79 1467.5 1769.85 1468.38 L1769.85 1451.02 Z" fill="#000000" fill-rule="nonzero" fill-opacity="1"></path><path clip-path="url(#clip610)" d="M1809.96 1454.1 Q1806.35 1454.1 1804.52 1457.66 Q1802.72 1461.2 1802.72 1468.33 Q1802.72 1475.44 1804.52 1479.01 Q1806.35 1482.55 1809.96 1482.55 Q1813.6 1482.55 1815.4 1479.01 Q1817.23 1475.44 1817.23 1468.33 Q1817.23 1461.2 1815.4 1457.66 Q1813.6 1454.1 1809.96 1454.1 M1809.96 1450.39 Q1815.77 1450.39 1818.83 1455 Q1821.91 1459.58 1821.91 1468.33 Q1821.91 1477.06 1818.83 1481.67 Q1815.77 1486.25 1809.96 1486.25 Q1804.15 1486.25 1801.07 1481.67 Q1798.02 1477.06 1798.02 1468.33 Q1798.02 1459.58 1801.07 1455 Q1804.15 1450.39 1809.96 1450.39 Z" fill="#000000" fill-rule="nonzero" fill-opacity="1"></path><path clip-path="url(#clip610)" d="M1840.12 1454.1 Q1836.51 1454.1 1834.68 1457.66 Q1832.88 1461.2 1832.88 1468.33 Q1832.88 1475.44 1834.68 1479.01 Q1836.51 1482.55 1840.12 1482.55 Q1843.76 1482.55 1845.56 1479.01 Q1847.39 1475.44 1847.39 1468.33 Q1847.39 1461.2 1845.56 1457.66 Q1843.76 1454.1 1840.12 1454.1 M1840.12 1450.39 Q1845.93 1450.39 1848.99 1455 Q1852.07 1459.58 1852.07 1468.33 Q1852.07 1477.06 1848.99 1481.67 Q1845.93 1486.25 1840.12 1486.25 Q1834.31 1486.25 1831.24 1481.67 Q1828.18 1477.06 1828.18 1468.33 Q1828.18 1459.58 1831.24 1455 Q1834.31 1450.39 1840.12 1450.39 Z" fill="#000000" fill-rule="nonzero" fill-opacity="1"></path><path clip-path="url(#clip610)" d="M2250.1 1481.64 L2266.42 1481.64 L2266.42 1485.58 L2244.48 1485.58 L2244.48 1481.64 Q2247.14 1478.89 2251.72 1474.26 Q2256.33 1469.61 2257.51 1468.27 Q2259.76 1465.74 2260.64 1464.01 Q2261.54 1462.25 2261.54 1460.56 Q2261.54 1457.8 2259.59 1456.07 Q2257.67 1454.33 2254.57 1454.33 Q2252.37 1454.33 2249.92 1455.09 Q2247.49 1455.86 2244.71 1457.41 L2244.71 1452.69 Q2247.53 1451.55 2249.99 1450.97 Q2252.44 1450.39 2254.48 1450.39 Q2259.85 1450.39 2263.04 1453.08 Q2266.24 1455.77 2266.24 1460.26 Q2266.24 1462.39 2265.43 1464.31 Q2264.64 1466.2 2262.53 1468.8 Q2261.95 1469.47 2258.85 1472.69 Q2255.75 1475.88 2250.1 1481.64 Z" fill="#000000" fill-rule="nonzero" fill-opacity="1"></path><path clip-path="url(#clip610)" d="M2286.24 1454.1 Q2282.63 1454.1 2280.8 1457.66 Q2278.99 1461.2 2278.99 1468.33 Q2278.99 1475.44 2280.8 1479.01 Q2282.63 1482.55 2286.24 1482.55 Q2289.87 1482.55 2291.68 1479.01 Q2293.51 1475.44 2293.51 1468.33 Q2293.51 1461.2 2291.68 1457.66 Q2289.87 1454.1 2286.24 1454.1 M2286.24 1450.39 Q2292.05 1450.39 2295.1 1455 Q2298.18 1459.58 2298.18 1468.33 Q2298.18 1477.06 2295.1 1481.67 Q2292.05 1486.25 2286.24 1486.25 Q2280.43 1486.25 2277.35 1481.67 Q2274.29 1477.06 2274.29 1468.33 Q2274.29 1459.58 2277.35 1455 Q2280.43 1450.39 2286.24 1450.39 Z" fill="#000000" fill-rule="nonzero" fill-opacity="1"></path><path clip-path="url(#clip610)" d="M2316.4 1454.1 Q2312.79 1454.1 2310.96 1457.66 Q2309.15 1461.2 2309.15 1468.33 Q2309.15 1475.44 2310.96 1479.01 Q2312.79 1482.55 2316.4 1482.55 Q2320.03 1482.55 2321.84 1479.01 Q2323.67 1475.44 2323.67 1468.33 Q2323.67 1461.2 2321.84 1457.66 Q2320.03 1454.1 2316.4 1454.1 M2316.4 1450.39 Q2322.21 1450.39 2325.26 1455 Q2328.34 1459.58 2328.34 1468.33 Q2328.34 1477.06 2325.26 1481.67 Q2322.21 1486.25 2316.4 1486.25 Q2310.59 1486.25 2307.51 1481.67 Q2304.45 1477.06 2304.45 1468.33 Q2304.45 1459.58 2307.51 1455 Q2310.59 1450.39 2316.4 1450.39 Z" fill="#000000" fill-rule="nonzero" fill-opacity="1"></path><path clip-path="url(#clip610)" d="M2346.56 1454.1 Q2342.95 1454.1 2341.12 1457.66 Q2339.32 1461.2 2339.32 1468.33 Q2339.32 1475.44 2341.12 1479.01 Q2342.95 1482.55 2346.56 1482.55 Q2350.19 1482.55 2352 1479.01 Q2353.83 1475.44 2353.83 1468.33 Q2353.83 1461.2 2352 1457.66 Q2350.19 1454.1 2346.56 1454.1 M2346.56 1450.39 Q2352.37 1450.39 2355.43 1455 Q2358.5 1459.58 2358.5 1468.33 Q2358.5 1477.06 2355.43 1481.67 Q2352.37 1486.25 2346.56 1486.25 Q2340.75 1486.25 2337.67 1481.67 Q2334.62 1477.06 2334.62 1468.33 Q2334.62 1459.58 2337.67 1455 Q2340.75 1450.39 2346.56 1450.39 Z" fill="#000000" fill-rule="nonzero" fill-opacity="1"></path><path clip-path="url(#clip610)" d="M1201.31 1546.53 L1201.31 1568.04 L1195.46 1568.04 L1195.46 1546.72 Q1195.46 1541.66 1193.48 1539.14 Q1191.51 1536.63 1187.56 1536.63 Q1182.82 1536.63 1180.08 1539.65 Q1177.35 1542.68 1177.35 1547.9 L1177.35 1568.04 L1171.46 1568.04 L1171.46 1532.4 L1177.35 1532.4 L1177.35 1537.93 Q1179.45 1534.72 1182.28 1533.13 Q1185.14 1531.54 1188.87 1531.54 Q1195.01 1531.54 1198.16 1535.36 Q1201.31 1539.14 1201.31 1546.53 Z" fill="#000000" fill-rule="nonzero" fill-opacity="1"></path><path clip-path="url(#clip610)" d="M1212.99 1518.52 L1218.85 1518.52 L1218.85 1568.04 L1212.99 1568.04 L1212.99 1518.52 Z" fill="#000000" fill-rule="nonzero" fill-opacity="1"></path><path clip-path="url(#clip610)" d="M1247.31 1550.12 Q1240.21 1550.12 1237.47 1551.75 Q1234.73 1553.37 1234.73 1557.29 Q1234.73 1560.4 1236.77 1562.25 Q1238.84 1564.07 1242.37 1564.07 Q1247.24 1564.07 1250.17 1560.63 Q1253.13 1557.16 1253.13 1551.43 L1253.13 1550.12 L1247.31 1550.12 M1258.99 1547.71 L1258.99 1568.04 L1253.13 1568.04 L1253.13 1562.63 Q1251.12 1565.88 1248.13 1567.44 Q1245.14 1568.97 1240.81 1568.97 Q1235.34 1568.97 1232.09 1565.91 Q1228.88 1562.82 1228.88 1557.67 Q1228.88 1551.65 1232.89 1548.6 Q1236.93 1545.54 1244.92 1545.54 L1253.13 1545.54 L1253.13 1544.97 Q1253.13 1540.93 1250.46 1538.73 Q1247.81 1536.5 1243.01 1536.5 Q1239.95 1536.5 1237.06 1537.23 Q1234.16 1537.97 1231.49 1539.43 L1231.49 1534.02 Q1234.7 1532.78 1237.72 1532.17 Q1240.75 1531.54 1243.61 1531.54 Q1251.35 1531.54 1255.17 1535.55 Q1258.99 1539.56 1258.99 1547.71 Z" fill="#000000" fill-rule="nonzero" fill-opacity="1"></path><path clip-path="url(#clip610)" d="M1285.88 1571.35 Q1283.4 1577.72 1281.04 1579.66 Q1278.69 1581.6 1274.74 1581.6 L1270.06 1581.6 L1270.06 1576.7 L1273.5 1576.7 Q1275.92 1576.7 1277.26 1575.56 Q1278.59 1574.41 1280.22 1570.14 L1281.27 1567.47 L1266.85 1532.4 L1273.05 1532.4 L1284.19 1560.28 L1295.33 1532.4 L1301.54 1532.4 L1285.88 1571.35 Z" fill="#000000" fill-rule="nonzero" fill-opacity="1"></path><path clip-path="url(#clip610)" d="M1340.12 1548.76 L1340.12 1551.62 L1313.19 1551.62 Q1313.57 1557.67 1316.82 1560.85 Q1320.1 1564 1325.92 1564 Q1329.3 1564 1332.45 1563.17 Q1335.63 1562.35 1338.75 1560.69 L1338.75 1566.23 Q1335.6 1567.57 1332.29 1568.27 Q1328.98 1568.97 1325.57 1568.97 Q1317.04 1568.97 1312.04 1564 Q1307.08 1559.04 1307.08 1550.57 Q1307.08 1541.82 1311.79 1536.69 Q1316.53 1531.54 1324.55 1531.54 Q1331.75 1531.54 1335.92 1536.18 Q1340.12 1540.8 1340.12 1548.76 M1334.26 1547.04 Q1334.2 1542.23 1331.56 1539.37 Q1328.95 1536.5 1324.62 1536.5 Q1319.72 1536.5 1316.76 1539.27 Q1313.83 1542.04 1313.38 1547.07 L1334.26 1547.04 Z" fill="#000000" fill-rule="nonzero" fill-opacity="1"></path><path clip-path="url(#clip610)" d="M1370.39 1537.87 Q1369.4 1537.3 1368.22 1537.04 Q1367.08 1536.76 1365.68 1536.76 Q1360.71 1536.76 1358.04 1540 Q1355.39 1543.22 1355.39 1549.27 L1355.39 1568.04 L1349.51 1568.04 L1349.51 1532.4 L1355.39 1532.4 L1355.39 1537.93 Q1357.24 1534.69 1360.2 1533.13 Q1363.16 1531.54 1367.39 1531.54 Q1368 1531.54 1368.73 1531.63 Q1369.46 1531.7 1370.35 1531.85 L1370.39 1537.87 Z" fill="#000000" fill-rule="nonzero" fill-opacity="1"></path><path clip-path="url(#clip610)" d="M1399.25 1533.45 L1399.25 1538.98 Q1396.77 1537.71 1394.1 1537.07 Q1391.42 1536.44 1388.56 1536.44 Q1384.2 1536.44 1382 1537.77 Q1379.84 1539.11 1379.84 1541.79 Q1379.84 1543.82 1381.4 1545 Q1382.96 1546.15 1387.67 1547.2 L1389.67 1547.64 Q1395.91 1548.98 1398.52 1551.43 Q1401.16 1553.85 1401.16 1558.21 Q1401.16 1563.17 1397.22 1566.07 Q1393.3 1568.97 1386.43 1568.97 Q1383.56 1568.97 1380.44 1568.39 Q1377.36 1567.85 1373.92 1566.74 L1373.92 1560.69 Q1377.17 1562.38 1380.32 1563.24 Q1383.47 1564.07 1386.56 1564.07 Q1390.69 1564.07 1392.92 1562.66 Q1395.15 1561.23 1395.15 1558.65 Q1395.15 1556.27 1393.53 1554.99 Q1391.93 1553.72 1386.49 1552.54 L1384.45 1552.07 Q1379.01 1550.92 1376.59 1548.56 Q1374.17 1546.18 1374.17 1542.04 Q1374.17 1537.01 1377.74 1534.27 Q1381.3 1531.54 1387.86 1531.54 Q1391.11 1531.54 1393.97 1532.01 Q1396.84 1532.49 1399.25 1533.45 Z" fill="#000000" fill-rule="nonzero" fill-opacity="1"></path><polyline clip-path="url(#clip610)" style="stroke:#000000; stroke-linecap:round; stroke-linejoin:round; stroke-width:4; stroke-opacity:1; fill:none" points="219.866,1423.18 219.866,123.472 "></polyline>
<polyline clip-path="url(#clip610)" style="stroke:#000000; stroke-linecap:round; stroke-linejoin:round; stroke-width:4; stroke-opacity:1; fill:none" points="219.866,1261.79 238.764,1261.79 "></polyline>
<polyline clip-path="url(#clip610)" style="stroke:#000000; stroke-linecap:round; stroke-linejoin:round; stroke-width:4; stroke-opacity:1; fill:none" points="219.866,930.14 238.764,930.14 "></polyline>
<polyline clip-path="url(#clip610)" style="stroke:#000000; stroke-linecap:round; stroke-linejoin:round; stroke-width:4; stroke-opacity:1; fill:none" points="219.866,598.494 238.764,598.494 "></polyline>
<polyline clip-path="url(#clip610)" style="stroke:#000000; stroke-linecap:round; stroke-linejoin:round; stroke-width:4; stroke-opacity:1; fill:none" points="219.866,266.848 238.764,266.848 "></polyline>
<path clip-path="url(#clip610)" d="M127.339 1247.58 Q123.728 1247.58 121.899 1251.15 Q120.093 1254.69 120.093 1261.82 Q120.093 1268.93 121.899 1272.49 Q123.728 1276.03 127.339 1276.03 Q130.973 1276.03 132.779 1272.49 Q134.607 1268.93 134.607 1261.82 Q134.607 1254.69 132.779 1251.15 Q130.973 1247.58 127.339 1247.58 M127.339 1243.88 Q133.149 1243.88 136.204 1248.49 Q139.283 1253.07 139.283 1261.82 Q139.283 1270.55 136.204 1275.15 Q133.149 1279.74 127.339 1279.74 Q121.529 1279.74 118.45 1275.15 Q115.394 1270.55 115.394 1261.82 Q115.394 1253.07 118.45 1248.49 Q121.529 1243.88 127.339 1243.88 Z" fill="#000000" fill-rule="nonzero" fill-opacity="1"></path><path clip-path="url(#clip610)" d="M147.501 1273.19 L152.385 1273.19 L152.385 1279.07 L147.501 1279.07 L147.501 1273.19 Z" fill="#000000" fill-rule="nonzero" fill-opacity="1"></path><path clip-path="url(#clip610)" d="M176.737 1260.43 Q180.093 1261.15 181.968 1263.42 Q183.866 1265.69 183.866 1269.02 Q183.866 1274.13 180.348 1276.94 Q176.829 1279.74 170.348 1279.74 Q168.172 1279.74 165.857 1279.3 Q163.565 1278.88 161.112 1278.02 L161.112 1273.51 Q163.056 1274.64 165.371 1275.22 Q167.686 1275.8 170.209 1275.8 Q174.607 1275.8 176.899 1274.07 Q179.214 1272.33 179.214 1269.02 Q179.214 1265.96 177.061 1264.25 Q174.931 1262.51 171.112 1262.51 L167.084 1262.51 L167.084 1258.67 L171.297 1258.67 Q174.746 1258.67 176.575 1257.31 Q178.403 1255.92 178.403 1253.32 Q178.403 1250.66 176.505 1249.25 Q174.63 1247.82 171.112 1247.82 Q169.19 1247.82 166.991 1248.23 Q164.792 1248.65 162.153 1249.53 L162.153 1245.36 Q164.815 1244.62 167.13 1244.25 Q169.468 1243.88 171.528 1243.88 Q176.852 1243.88 179.954 1246.31 Q183.056 1248.72 183.056 1252.84 Q183.056 1255.71 181.413 1257.7 Q179.769 1259.67 176.737 1260.43 Z" fill="#000000" fill-rule="nonzero" fill-opacity="1"></path><path clip-path="url(#clip610)" d="M126.205 915.938 Q122.593 915.938 120.765 919.503 Q118.959 923.045 118.959 930.174 Q118.959 937.281 120.765 940.846 Q122.593 944.387 126.205 944.387 Q129.839 944.387 131.644 940.846 Q133.473 937.281 133.473 930.174 Q133.473 923.045 131.644 919.503 Q129.839 915.938 126.205 915.938 M126.205 912.235 Q132.015 912.235 135.07 916.841 Q138.149 921.424 138.149 930.174 Q138.149 938.901 135.07 943.508 Q132.015 948.091 126.205 948.091 Q120.394 948.091 117.316 943.508 Q114.26 938.901 114.26 930.174 Q114.26 921.424 117.316 916.841 Q120.394 912.235 126.205 912.235 Z" fill="#000000" fill-rule="nonzero" fill-opacity="1"></path><path clip-path="url(#clip610)" d="M146.366 941.54 L151.251 941.54 L151.251 947.42 L146.366 947.42 L146.366 941.54 Z" fill="#000000" fill-rule="nonzero" fill-opacity="1"></path><path clip-path="url(#clip610)" d="M174.283 916.934 L162.477 935.383 L174.283 935.383 L174.283 916.934 M173.056 912.86 L178.936 912.86 L178.936 935.383 L183.866 935.383 L183.866 939.271 L178.936 939.271 L178.936 947.42 L174.283 947.42 L174.283 939.271 L158.681 939.271 L158.681 934.758 L173.056 912.86 Z" fill="#000000" fill-rule="nonzero" fill-opacity="1"></path><path clip-path="url(#clip610)" d="M127.686 584.293 Q124.075 584.293 122.246 587.857 Q120.441 591.399 120.441 598.529 Q120.441 605.635 122.246 609.2 Q124.075 612.742 127.686 612.742 Q131.32 612.742 133.126 609.2 Q134.954 605.635 134.954 598.529 Q134.954 591.399 133.126 587.857 Q131.32 584.293 127.686 584.293 M127.686 580.589 Q133.496 580.589 136.552 585.195 Q139.63 589.779 139.63 598.529 Q139.63 607.255 136.552 611.862 Q133.496 616.445 127.686 616.445 Q121.876 616.445 118.797 611.862 Q115.742 607.255 115.742 598.529 Q115.742 589.779 118.797 585.195 Q121.876 580.589 127.686 580.589 Z" fill="#000000" fill-rule="nonzero" fill-opacity="1"></path><path clip-path="url(#clip610)" d="M147.848 609.894 L152.732 609.894 L152.732 615.774 L147.848 615.774 L147.848 609.894 Z" fill="#000000" fill-rule="nonzero" fill-opacity="1"></path><path clip-path="url(#clip610)" d="M162.964 581.214 L181.32 581.214 L181.32 585.149 L167.246 585.149 L167.246 593.621 Q168.264 593.274 169.283 593.112 Q170.302 592.927 171.32 592.927 Q177.107 592.927 180.487 596.098 Q183.866 599.269 183.866 604.686 Q183.866 610.265 180.394 613.367 Q176.922 616.445 170.602 616.445 Q168.427 616.445 166.158 616.075 Q163.913 615.705 161.505 614.964 L161.505 610.265 Q163.589 611.399 165.811 611.955 Q168.033 612.51 170.51 612.51 Q174.514 612.51 176.852 610.404 Q179.19 608.297 179.19 604.686 Q179.19 601.075 176.852 598.968 Q174.514 596.862 170.51 596.862 Q168.635 596.862 166.76 597.279 Q164.908 597.695 162.964 598.575 L162.964 581.214 Z" fill="#000000" fill-rule="nonzero" fill-opacity="1"></path><path clip-path="url(#clip610)" d="M126.529 252.647 Q122.918 252.647 121.089 256.212 Q119.283 259.753 119.283 266.883 Q119.283 273.99 121.089 277.554 Q122.918 281.096 126.529 281.096 Q130.163 281.096 131.968 277.554 Q133.797 273.99 133.797 266.883 Q133.797 259.753 131.968 256.212 Q130.163 252.647 126.529 252.647 M126.529 248.943 Q132.339 248.943 135.394 253.55 Q138.473 258.133 138.473 266.883 Q138.473 275.61 135.394 280.216 Q132.339 284.8 126.529 284.8 Q120.718 284.8 117.64 280.216 Q114.584 275.61 114.584 266.883 Q114.584 258.133 117.64 253.55 Q120.718 248.943 126.529 248.943 Z" fill="#000000" fill-rule="nonzero" fill-opacity="1"></path><path clip-path="url(#clip610)" d="M146.691 278.249 L151.575 278.249 L151.575 284.128 L146.691 284.128 L146.691 278.249 Z" fill="#000000" fill-rule="nonzero" fill-opacity="1"></path><path clip-path="url(#clip610)" d="M172.339 264.985 Q169.19 264.985 167.339 267.138 Q165.51 269.29 165.51 273.04 Q165.51 276.767 167.339 278.943 Q169.19 281.096 172.339 281.096 Q175.487 281.096 177.315 278.943 Q179.167 276.767 179.167 273.04 Q179.167 269.29 177.315 267.138 Q175.487 264.985 172.339 264.985 M181.621 250.332 L181.621 254.591 Q179.862 253.758 178.056 253.318 Q176.274 252.879 174.514 252.879 Q169.885 252.879 167.431 256.004 Q165.001 259.128 164.653 265.448 Q166.019 263.434 168.079 262.369 Q170.139 261.281 172.616 261.281 Q177.825 261.281 180.834 264.453 Q183.866 267.601 183.866 273.04 Q183.866 278.365 180.718 281.582 Q177.57 284.8 172.339 284.8 Q166.343 284.8 163.172 280.216 Q160.001 275.61 160.001 266.883 Q160.001 258.689 163.89 253.828 Q167.778 248.943 174.329 248.943 Q176.089 248.943 177.871 249.291 Q179.676 249.638 181.621 250.332 Z" fill="#000000" fill-rule="nonzero" fill-opacity="1"></path><path clip-path="url(#clip610)" d="M22.818 773.326 L46.4666 782.047 L46.4666 764.573 L22.818 773.326 M16.4842 776.954 L16.4842 769.666 L64.0042 751.555 L64.0042 758.239 L51.8138 762.568 L51.8138 783.989 L64.0042 788.317 L64.0042 795.097 L16.4842 776.954 Z" fill="#000000" fill-rule="nonzero" fill-opacity="1"></path><path clip-path="url(#clip610)" d="M1063.49 20.1573 L1052.39 50.2555 L1074.63 50.2555 L1063.49 20.1573 M1058.87 12.096 L1068.15 12.096 L1091.2 72.576 L1082.69 72.576 L1077.18 57.061 L1049.92 57.061 L1044.41 72.576 L1035.78 72.576 L1058.87 12.096 Z" fill="#000000" fill-rule="nonzero" fill-opacity="1"></path><path clip-path="url(#clip610)" d="M1120.73 27.2059 L1128.63 27.2059 L1142.81 65.2844 L1156.99 27.2059 L1164.89 27.2059 L1147.87 72.576 L1137.74 72.576 L1120.73 27.2059 Z" fill="#000000" fill-rule="nonzero" fill-opacity="1"></path><path clip-path="url(#clip610)" d="M1204.1 28.5427 L1204.1 35.5912 Q1200.94 33.9709 1197.54 33.1607 Q1194.13 32.3505 1190.49 32.3505 Q1184.94 32.3505 1182.14 34.0519 Q1179.39 35.7533 1179.39 39.156 Q1179.39 41.7486 1181.37 43.2475 Q1183.36 44.7058 1189.35 46.0426 L1191.9 46.6097 Q1199.84 48.3111 1203.17 51.4303 Q1206.53 54.509 1206.53 60.0587 Q1206.53 66.3781 1201.51 70.0644 Q1196.52 73.7508 1187.77 73.7508 Q1184.13 73.7508 1180.16 73.0216 Q1176.23 72.3329 1171.85 70.9151 L1171.85 63.2184 Q1175.98 65.3654 1180 66.4591 Q1184.01 67.5124 1187.93 67.5124 Q1193.2 67.5124 1196.04 65.73 Q1198.87 63.9071 1198.87 60.6258 Q1198.87 57.5877 1196.81 55.9673 Q1194.78 54.3469 1187.85 52.8481 L1185.26 52.2405 Q1178.33 50.7821 1175.26 47.7845 Q1172.18 44.7463 1172.18 39.4801 Q1172.18 33.0797 1176.71 29.5959 Q1181.25 26.1121 1189.6 26.1121 Q1193.73 26.1121 1197.37 26.7198 Q1201.02 27.3274 1204.1 28.5427 Z" fill="#000000" fill-rule="nonzero" fill-opacity="1"></path><path clip-path="url(#clip610)" d="M1282.48 45.1919 L1282.48 72.576 L1275.03 72.576 L1275.03 45.4349 Q1275.03 38.994 1272.52 35.7938 Q1270.01 32.5936 1264.98 32.5936 Q1258.95 32.5936 1255.46 36.4419 Q1251.98 40.2903 1251.98 46.9338 L1251.98 72.576 L1244.49 72.576 L1244.49 27.2059 L1251.98 27.2059 L1251.98 34.2544 Q1254.65 30.163 1258.26 28.1376 Q1261.9 26.1121 1266.64 26.1121 Q1274.46 26.1121 1278.47 30.9732 Q1282.48 35.7938 1282.48 45.1919 Z" fill="#000000" fill-rule="nonzero" fill-opacity="1"></path><path clip-path="url(#clip610)" d="M1297.35 9.54393 L1304.8 9.54393 L1304.8 72.576 L1297.35 72.576 L1297.35 9.54393 Z" fill="#000000" fill-rule="nonzero" fill-opacity="1"></path><path clip-path="url(#clip610)" d="M1341.02 49.7694 Q1331.99 49.7694 1328.5 51.8354 Q1325.02 53.9013 1325.02 58.8839 Q1325.02 62.8538 1327.61 65.2034 Q1330.24 67.5124 1334.74 67.5124 Q1340.94 67.5124 1344.66 63.1374 Q1348.43 58.7219 1348.43 51.4303 L1348.43 49.7694 L1341.02 49.7694 M1355.89 46.6907 L1355.89 72.576 L1348.43 72.576 L1348.43 65.6895 Q1345.88 69.8214 1342.07 71.8063 Q1338.26 73.7508 1332.75 73.7508 Q1325.79 73.7508 1321.66 69.8619 Q1317.56 65.9325 1317.56 59.3701 Q1317.56 51.7138 1322.67 47.825 Q1327.81 43.9361 1337.98 43.9361 L1348.43 43.9361 L1348.43 43.2069 Q1348.43 38.0623 1345.03 35.2672 Q1341.67 32.4315 1335.55 32.4315 Q1331.66 32.4315 1327.97 33.3632 Q1324.29 34.295 1320.89 36.1584 L1320.89 29.2718 Q1324.98 27.692 1328.83 26.9223 Q1332.67 26.1121 1336.32 26.1121 Q1346.16 26.1121 1351.02 31.2163 Q1355.89 36.3204 1355.89 46.6907 Z" fill="#000000" fill-rule="nonzero" fill-opacity="1"></path><path clip-path="url(#clip610)" d="M1390.12 76.7889 Q1386.96 84.8907 1383.96 87.3618 Q1380.96 89.8329 1375.94 89.8329 L1369.98 89.8329 L1369.98 83.5945 L1374.36 83.5945 Q1377.44 83.5945 1379.14 82.1361 Q1380.84 80.6778 1382.9 75.2496 L1384.24 71.8468 L1365.89 27.2059 L1373.79 27.2059 L1387.97 62.6918 L1402.15 27.2059 L1410.05 27.2059 L1390.12 76.7889 Z" fill="#000000" fill-rule="nonzero" fill-opacity="1"></path><path clip-path="url(#clip610)" d="M1459.14 48.0275 L1459.14 51.6733 L1424.87 51.6733 Q1425.36 59.3701 1429.49 63.421 Q1433.66 67.4314 1441.08 67.4314 Q1445.37 67.4314 1449.38 66.3781 Q1453.43 65.3249 1457.4 63.2184 L1457.4 70.267 Q1453.39 71.9684 1449.18 72.8596 Q1444.96 73.7508 1440.63 73.7508 Q1429.77 73.7508 1423.41 67.4314 Q1417.09 61.1119 1417.09 50.3365 Q1417.09 39.1965 1423.09 32.6746 Q1429.13 26.1121 1439.33 26.1121 Q1448.49 26.1121 1453.8 32.0264 Q1459.14 37.9003 1459.14 48.0275 M1451.69 45.84 Q1451.61 39.7232 1448.25 36.0774 Q1444.92 32.4315 1439.42 32.4315 Q1433.18 32.4315 1429.41 35.9558 Q1425.68 39.4801 1425.12 45.8805 L1451.69 45.84 Z" fill="#000000" fill-rule="nonzero" fill-opacity="1"></path><path clip-path="url(#clip610)" d="M1497.67 34.1734 Q1496.41 33.4443 1494.91 33.1202 Q1493.45 32.7556 1491.67 32.7556 Q1485.35 32.7556 1481.95 36.8875 Q1478.59 40.9789 1478.59 48.6757 L1478.59 72.576 L1471.09 72.576 L1471.09 27.2059 L1478.59 27.2059 L1478.59 34.2544 Q1480.94 30.1225 1484.7 28.1376 Q1488.47 26.1121 1493.86 26.1121 Q1494.63 26.1121 1495.56 26.2337 Q1496.49 26.3147 1497.63 26.5172 L1497.67 34.1734 Z" fill="#000000" fill-rule="nonzero" fill-opacity="1"></path><path clip-path="url(#clip610)" d="M1534.41 28.5427 L1534.41 35.5912 Q1531.25 33.9709 1527.85 33.1607 Q1524.44 32.3505 1520.8 32.3505 Q1515.25 32.3505 1512.45 34.0519 Q1509.7 35.7533 1509.7 39.156 Q1509.7 41.7486 1511.68 43.2475 Q1513.67 44.7058 1519.66 46.0426 L1522.22 46.6097 Q1530.16 48.3111 1533.48 51.4303 Q1536.84 54.509 1536.84 60.0587 Q1536.84 66.3781 1531.82 70.0644 Q1526.83 73.7508 1518.08 73.7508 Q1514.44 73.7508 1510.47 73.0216 Q1506.54 72.3329 1502.16 70.9151 L1502.16 63.2184 Q1506.3 65.3654 1510.31 66.4591 Q1514.32 67.5124 1518.25 67.5124 Q1523.51 67.5124 1526.35 65.73 Q1529.18 63.9071 1529.18 60.6258 Q1529.18 57.5877 1527.12 55.9673 Q1525.09 54.3469 1518.16 52.8481 L1515.57 52.2405 Q1508.64 50.7821 1505.57 47.7845 Q1502.49 44.7463 1502.49 39.4801 Q1502.49 33.0797 1507.02 29.5959 Q1511.56 26.1121 1519.91 26.1121 Q1524.04 26.1121 1527.68 26.7198 Q1531.33 27.3274 1534.41 28.5427 Z" fill="#000000" fill-rule="nonzero" fill-opacity="1"></path><polyline clip-path="url(#clip612)" style="stroke:#009af9; stroke-linecap:round; stroke-linejoin:round; stroke-width:4; stroke-opacity:1; fill:none" points="280.231,160.256 290.342,1386.4 300.454,986.33 310.565,819 320.676,1151.44 330.788,914.847 340.899,809.804 351.011,910.272 361.122,1052.65 371.233,1184.05 381.345,1097.3 391.456,1058.42 401.567,1123.01 411.679,555.633 421.79,1162.01 431.901,1021.04 442.013,1103.76 452.124,820.419 462.235,796.609 472.347,898.649 482.458,1001.4 492.57,887.766 502.681,938.247 512.792,976.41 522.904,1338.26 533.015,1008.67 543.126,984.336 553.238,858.928 563.349,834.018 573.46,849.231 583.572,710.247 593.683,992.378 603.794,1081.99 613.906,867.53 624.017,883.395 634.129,1162.11 644.24,787.011 654.351,734.198 664.463,954.673 674.574,1006.49 684.685,787.47 694.797,804.777 704.908,750.225 715.019,832.723 725.131,1251.45 735.242,982.809 745.353,1042.71 755.465,1227.91 765.576,1058.42 775.688,794.965 785.799,967.603 795.91,654.087 806.022,808.872 816.133,1202.05 826.244,599.744 836.356,1090.26 846.467,470.485 856.578,970.07 866.69,1051.68 876.801,1075.18 886.912,887.684 897.024,887.88 907.135,965.447 917.247,598.066 927.358,1142.73 937.469,833.871 947.581,752.127 957.692,1023.47 967.803,1032.72 977.915,1288.79 988.026,699.483 998.137,1173.81 1008.25,693.781 1018.36,1032.36 1028.47,940.178 1038.58,1072.35 1048.69,1094.44 1058.81,1232.21 1068.92,963.011 1079.03,1173.77 1089.14,1170.73 1099.25,1219.88 1109.36,1103.42 1119.47,1019.05 1129.59,966.105 1139.7,840.062 1149.81,1092.87 1159.92,1024.83 1170.03,1075.97 1180.14,1127.55 1190.25,1108.19 1200.36,779.405 1210.48,1050.65 1220.59,958.111 1230.7,907.736 1240.81,954.402 1250.92,1105.98 1261.03,864.527 1271.14,780.619 1281.26,693.391 1291.37,834.452 1301.48,1029.64 1311.59,1284.67 1321.7,906.649 1331.81,1142 1341.92,703.638 1352.03,800.374 1362.15,985.323 1372.26,858.061 1382.37,961.437 1392.48,876.947 1402.59,1033.64 1412.7,1011.24 1422.81,331.726 1432.93,769.715 1443.04,1108.24 1453.15,973.347 1463.26,712.574 1473.37,802.19 1483.48,890.905 1493.59,894.137 1503.71,988.322 1513.82,1034.19 1523.93,949.376 1534.04,804.439 1544.15,1293.08 1554.26,273.441 1564.37,905.11 1574.48,932.56 1584.6,880.598 1594.71,1017.46 1604.82,795.934 1614.93,529.044 1625.04,1087 1635.15,740.88 1645.26,1137.81 1655.38,1112.06 1665.49,784.446 1675.6,1024.56 1685.71,1044.06 1695.82,918.856 1705.93,1195.21 1716.04,1102.63 1726.16,888.737 1736.27,1314.12 1746.38,1121.6 1756.49,963.827 1766.6,881.139 1776.71,939.722 1786.82,1117.43 1796.93,768.584 1807.05,1153.56 1817.16,933.865 1827.27,985.264 1837.38,986.915 1847.49,1088.51 1857.6,1018.37 1867.71,1052.05 1877.83,1030.05 1887.94,1015.01 1898.05,855.072 1908.16,644.33 1918.27,1110.63 1928.38,928.072 1938.49,930.978 1948.6,1009.43 1958.72,339.951 1968.83,1204.63 1978.94,827.138 1989.05,1007.02 1999.16,1094.51 2009.27,928.224 2019.38,1070.16 2029.5,1137.74 2039.61,1122.5 2049.72,1089.55 2059.83,1067.15 2069.94,949.616 2080.05,1131.61 2090.16,1009.37 2100.28,1151.38 2110.39,1120.49 2120.5,1065.27 2130.61,791.537 2140.72,657.048 2150.83,924.15 2160.94,858.098 2171.05,847.256 2181.17,871.562 2191.28,900.796 2201.39,1087.17 2211.5,937.625 2221.61,627.845 2231.72,1039.26 2241.83,651.673 2251.95,1009.93 2262.06,1127.95 2272.17,1176.52 2282.28,978.857 2292.39,1010.05 "></polyline>
<path clip-path="url(#clip610)" d="M1964.14 270.476 L2281.66 270.476 L2281.66 166.796 L1964.14 166.796  Z" fill="#ffffff" fill-rule="evenodd" fill-opacity="1"></path>
<polyline clip-path="url(#clip610)" style="stroke:#000000; stroke-linecap:round; stroke-linejoin:round; stroke-width:4; stroke-opacity:1; fill:none" points="1964.14,270.476 2281.66,270.476 2281.66,166.796 1964.14,166.796 1964.14,270.476 "></polyline>
<polyline clip-path="url(#clip610)" style="stroke:#009af9; stroke-linecap:round; stroke-linejoin:round; stroke-width:4; stroke-opacity:1; fill:none" points="1987.83,218.636 2130.03,218.636 "></polyline>
<path clip-path="url(#clip610)" d="M2158.4 205.198 L2158.4 232.073 L2164.05 232.073 Q2171.2 232.073 2174.51 228.832 Q2177.85 225.592 2177.85 218.601 Q2177.85 211.657 2174.51 208.439 Q2171.2 205.198 2164.05 205.198 L2158.4 205.198 M2153.73 201.356 L2163.33 201.356 Q2173.38 201.356 2178.08 205.546 Q2182.78 209.712 2182.78 218.601 Q2182.78 227.536 2178.05 231.726 Q2173.33 235.916 2163.33 235.916 L2153.73 235.916 L2153.73 201.356 Z" fill="#000000" fill-rule="nonzero" fill-opacity="1"></path><path clip-path="url(#clip610)" d="M2201.83 222.883 Q2196.66 222.883 2194.67 224.064 Q2192.68 225.244 2192.68 228.092 Q2192.68 230.36 2194.16 231.703 Q2195.67 233.022 2198.24 233.022 Q2201.78 233.022 2203.91 230.522 Q2206.06 227.999 2206.06 223.832 L2206.06 222.883 L2201.83 222.883 M2210.32 221.124 L2210.32 235.916 L2206.06 235.916 L2206.06 231.981 Q2204.6 234.342 2202.43 235.476 Q2200.25 236.587 2197.1 236.587 Q2193.12 236.587 2190.76 234.365 Q2188.42 232.119 2188.42 228.369 Q2188.42 223.994 2191.34 221.772 Q2194.28 219.55 2200.09 219.55 L2206.06 219.55 L2206.06 219.133 Q2206.06 216.194 2204.12 214.596 Q2202.2 212.976 2198.7 212.976 Q2196.48 212.976 2194.37 213.508 Q2192.27 214.041 2190.32 215.106 L2190.32 211.17 Q2192.66 210.268 2194.86 209.828 Q2197.06 209.365 2199.14 209.365 Q2204.77 209.365 2207.54 212.282 Q2210.32 215.198 2210.32 221.124 Z" fill="#000000" fill-rule="nonzero" fill-opacity="1"></path><path clip-path="url(#clip610)" d="M2223.31 202.629 L2223.31 209.99 L2232.08 209.99 L2232.08 213.3 L2223.31 213.3 L2223.31 227.374 Q2223.31 230.545 2224.16 231.448 Q2225.04 232.351 2227.71 232.351 L2232.08 232.351 L2232.08 235.916 L2227.71 235.916 Q2222.78 235.916 2220.9 234.087 Q2219.03 232.235 2219.03 227.374 L2219.03 213.3 L2215.9 213.3 L2215.9 209.99 L2219.03 209.99 L2219.03 202.629 L2223.31 202.629 Z" fill="#000000" fill-rule="nonzero" fill-opacity="1"></path><path clip-path="url(#clip610)" d="M2249.47 222.883 Q2244.3 222.883 2242.31 224.064 Q2240.32 225.244 2240.32 228.092 Q2240.32 230.36 2241.8 231.703 Q2243.31 233.022 2245.88 233.022 Q2249.42 233.022 2251.55 230.522 Q2253.7 227.999 2253.7 223.832 L2253.7 222.883 L2249.47 222.883 M2257.96 221.124 L2257.96 235.916 L2253.7 235.916 L2253.7 231.981 Q2252.24 234.342 2250.07 235.476 Q2247.89 236.587 2244.74 236.587 Q2240.76 236.587 2238.4 234.365 Q2236.06 232.119 2236.06 228.369 Q2236.06 223.994 2238.98 221.772 Q2241.92 219.55 2247.73 219.55 L2253.7 219.55 L2253.7 219.133 Q2253.7 216.194 2251.76 214.596 Q2249.84 212.976 2246.34 212.976 Q2244.12 212.976 2242.01 213.508 Q2239.91 214.041 2237.96 215.106 L2237.96 211.17 Q2240.3 210.268 2242.5 209.828 Q2244.7 209.365 2246.78 209.365 Q2252.41 209.365 2255.18 212.282 Q2257.96 215.198 2257.96 221.124 Z" fill="#000000" fill-rule="nonzero" fill-opacity="1"></path></svg>