<svg xmlns="http://www.w3.org/2000/svg" xmlns:xlink="http://www.w3.org/1999/xlink" width="600" height="400" viewBox="0 0 2400 1600">
<defs>
  <clipPath id="clip170">
    <rect x="0" y="0" width="2400" height="1600"></rect>
  </clipPath>
</defs>
<path clip-path="url(#clip170)" d="M0 1600 L2400 1600 L2400 0 L0 0  Z" fill="#ffffff" fill-rule="evenodd" fill-opacity="1"></path>
<defs>
  <clipPath id="clip171">
    <rect x="480" y="0" width="1681" height="1600"></rect>
  </clipPath>
</defs>
<path clip-path="url(#clip170)" d="M289.119 1423.18 L2352.76 1423.18 L2352.76 123.472 L289.119 123.472  Z" fill="#ffffff" fill-rule="evenodd" fill-opacity="1"></path>
<defs>
  <clipPath id="clip172">
    <rect x="289" y="123" width="2065" height="1301"></rect>
  </clipPath>
</defs>
<polyline clip-path="url(#clip172)" style="stroke:#000000; stroke-linecap:round; stroke-linejoin:round; stroke-width:2; stroke-opacity:0.1; fill:none" points="347.524,1423.18 347.524,123.472 "></polyline>
<polyline clip-path="url(#clip172)" style="stroke:#000000; stroke-linecap:round; stroke-linejoin:round; stroke-width:2; stroke-opacity:0.1; fill:none" points="736.89,1423.18 736.89,123.472 "></polyline>
<polyline clip-path="url(#clip172)" style="stroke:#000000; stroke-linecap:round; stroke-linejoin:round; stroke-width:2; stroke-opacity:0.1; fill:none" points="1126.25,1423.18 1126.25,123.472 "></polyline>
<polyline clip-path="url(#clip172)" style="stroke:#000000; stroke-linecap:round; stroke-linejoin:round; stroke-width:2; stroke-opacity:0.1; fill:none" points="1515.62,1423.18 1515.62,123.472 "></polyline>
<polyline clip-path="url(#clip172)" style="stroke:#000000; stroke-linecap:round; stroke-linejoin:round; stroke-width:2; stroke-opacity:0.1; fill:none" points="1904.99,1423.18 1904.99,123.472 "></polyline>
<polyline clip-path="url(#clip172)" style="stroke:#000000; stroke-linecap:round; stroke-linejoin:round; stroke-width:2; stroke-opacity:0.1; fill:none" points="2294.35,1423.18 2294.35,123.472 "></polyline>
<polyline clip-path="url(#clip172)" style="stroke:#000000; stroke-linecap:round; stroke-linejoin:round; stroke-width:2; stroke-opacity:0.1; fill:none" points="289.119,1233.27 2352.76,1233.27 "></polyline>
<polyline clip-path="url(#clip172)" style="stroke:#000000; stroke-linecap:round; stroke-linejoin:round; stroke-width:2; stroke-opacity:0.1; fill:none" points="289.119,819.26 2352.76,819.26 "></polyline>
<polyline clip-path="url(#clip172)" style="stroke:#000000; stroke-linecap:round; stroke-linejoin:round; stroke-width:2; stroke-opacity:0.1; fill:none" points="289.119,405.251 2352.76,405.251 "></polyline>
<polyline clip-path="url(#clip170)" style="stroke:#000000; stroke-linecap:round; stroke-linejoin:round; stroke-width:4; stroke-opacity:1; fill:none" points="289.119,1423.18 2352.76,1423.18 "></polyline>
<polyline clip-path="url(#clip170)" style="stroke:#000000; stroke-linecap:round; stroke-linejoin:round; stroke-width:4; stroke-opacity:1; fill:none" points="347.524,1423.18 347.524,1404.28 "></polyline>
<polyline clip-path="url(#clip170)" style="stroke:#000000; stroke-linecap:round; stroke-linejoin:round; stroke-width:4; stroke-opacity:1; fill:none" points="736.89,1423.18 736.89,1404.28 "></polyline>
<polyline clip-path="url(#clip170)" style="stroke:#000000; stroke-linecap:round; stroke-linejoin:round; stroke-width:4; stroke-opacity:1; fill:none" points="1126.25,1423.18 1126.25,1404.28 "></polyline>
<polyline clip-path="url(#clip170)" style="stroke:#000000; stroke-linecap:round; stroke-linejoin:round; stroke-width:4; stroke-opacity:1; fill:none" points="1515.62,1423.18 1515.62,1404.28 "></polyline>
<polyline clip-path="url(#clip170)" style="stroke:#000000; stroke-linecap:round; stroke-linejoin:round; stroke-width:4; stroke-opacity:1; fill:none" points="1904.99,1423.18 1904.99,1404.28 "></polyline>
<polyline clip-path="url(#clip170)" style="stroke:#000000; stroke-linecap:round; stroke-linejoin:round; stroke-width:4; stroke-opacity:1; fill:none" points="2294.35,1423.18 2294.35,1404.28 "></polyline>
<path clip-path="url(#clip170)" d="M324.909 1454.1 Q321.297 1454.1 319.469 1457.66 Q317.663 1461.2 317.663 1468.33 Q317.663 1475.44 319.469 1479.01 Q321.297 1482.55 324.909 1482.55 Q328.543 1482.55 330.348 1479.01 Q332.177 1475.44 332.177 1468.33 Q332.177 1461.2 330.348 1457.66 Q328.543 1454.1 324.909 1454.1 M324.909 1450.39 Q330.719 1450.39 333.774 1455 Q336.853 1459.58 336.853 1468.33 Q336.853 1477.06 333.774 1481.67 Q330.719 1486.25 324.909 1486.25 Q319.098 1486.25 316.02 1481.67 Q312.964 1477.06 312.964 1468.33 Q312.964 1459.58 316.02 1455 Q319.098 1450.39 324.909 1450.39 Z" fill="#000000" fill-rule="nonzero" fill-opacity="1"></path><path clip-path="url(#clip170)" d="M345.07 1479.7 L349.955 1479.7 L349.955 1485.58 L345.07 1485.58 L345.07 1479.7 Z" fill="#000000" fill-rule="nonzero" fill-opacity="1"></path><path clip-path="url(#clip170)" d="M370.14 1454.1 Q366.529 1454.1 364.7 1457.66 Q362.894 1461.2 362.894 1468.33 Q362.894 1475.44 364.7 1479.01 Q366.529 1482.55 370.14 1482.55 Q373.774 1482.55 375.58 1479.01 Q377.408 1475.44 377.408 1468.33 Q377.408 1461.2 375.58 1457.66 Q373.774 1454.1 370.14 1454.1 M370.14 1450.39 Q375.95 1450.39 379.005 1455 Q382.084 1459.58 382.084 1468.33 Q382.084 1477.06 379.005 1481.67 Q375.95 1486.25 370.14 1486.25 Q364.33 1486.25 361.251 1481.67 Q358.195 1477.06 358.195 1468.33 Q358.195 1459.58 361.251 1455 Q364.33 1450.39 370.14 1450.39 Z" fill="#000000" fill-rule="nonzero" fill-opacity="1"></path><path clip-path="url(#clip170)" d="M714.887 1454.1 Q711.276 1454.1 709.448 1457.66 Q707.642 1461.2 707.642 1468.33 Q707.642 1475.44 709.448 1479.01 Q711.276 1482.55 714.887 1482.55 Q718.522 1482.55 720.327 1479.01 Q722.156 1475.44 722.156 1468.33 Q722.156 1461.2 720.327 1457.66 Q718.522 1454.1 714.887 1454.1 M714.887 1450.39 Q720.698 1450.39 723.753 1455 Q726.832 1459.58 726.832 1468.33 Q726.832 1477.06 723.753 1481.67 Q720.698 1486.25 714.887 1486.25 Q709.077 1486.25 705.999 1481.67 Q702.943 1477.06 702.943 1468.33 Q702.943 1459.58 705.999 1455 Q709.077 1450.39 714.887 1450.39 Z" fill="#000000" fill-rule="nonzero" fill-opacity="1"></path><path clip-path="url(#clip170)" d="M735.049 1479.7 L739.934 1479.7 L739.934 1485.58 L735.049 1485.58 L735.049 1479.7 Z" fill="#000000" fill-rule="nonzero" fill-opacity="1"></path><path clip-path="url(#clip170)" d="M750.929 1481.64 L758.568 1481.64 L758.568 1455.28 L750.258 1456.95 L750.258 1452.69 L758.521 1451.02 L763.197 1451.02 L763.197 1481.64 L770.836 1481.64 L770.836 1485.58 L750.929 1485.58 L750.929 1481.64 Z" fill="#000000" fill-rule="nonzero" fill-opacity="1"></path><path clip-path="url(#clip170)" d="M1104.44 1454.1 Q1100.83 1454.1 1099 1457.66 Q1097.19 1461.2 1097.19 1468.33 Q1097.19 1475.44 1099 1479.01 Q1100.83 1482.55 1104.44 1482.55 Q1108.07 1482.55 1109.88 1479.01 Q1111.71 1475.44 1111.71 1468.33 Q1111.71 1461.2 1109.88 1457.66 Q1108.07 1454.1 1104.44 1454.1 M1104.44 1450.39 Q1110.25 1450.39 1113.3 1455 Q1116.38 1459.58 1116.38 1468.33 Q1116.38 1477.06 1113.3 1481.67 Q1110.25 1486.25 1104.44 1486.25 Q1098.63 1486.25 1095.55 1481.67 Q1092.49 1477.06 1092.49 1468.33 Q1092.49 1459.58 1095.55 1455 Q1098.63 1450.39 1104.44 1450.39 Z" fill="#000000" fill-rule="nonzero" fill-opacity="1"></path><path clip-path="url(#clip170)" d="M1124.6 1479.7 L1129.48 1479.7 L1129.48 1485.58 L1124.6 1485.58 L1124.6 1479.7 Z" fill="#000000" fill-rule="nonzero" fill-opacity="1"></path><path clip-path="url(#clip170)" d="M1143.7 1481.64 L1160.02 1481.64 L1160.02 1485.58 L1138.07 1485.58 L1138.07 1481.64 Q1140.73 1478.89 1145.32 1474.26 Q1149.92 1469.61 1151.1 1468.27 Q1153.35 1465.74 1154.23 1464.01 Q1155.13 1462.25 1155.13 1460.56 Q1155.13 1457.8 1153.19 1456.07 Q1151.27 1454.33 1148.16 1454.33 Q1145.97 1454.33 1143.51 1455.09 Q1141.08 1455.86 1138.3 1457.41 L1138.3 1452.69 Q1141.13 1451.55 1143.58 1450.97 Q1146.03 1450.39 1148.07 1450.39 Q1153.44 1450.39 1156.64 1453.08 Q1159.83 1455.77 1159.83 1460.26 Q1159.83 1462.39 1159.02 1464.31 Q1158.23 1466.2 1156.13 1468.8 Q1155.55 1469.47 1152.45 1472.69 Q1149.35 1475.88 1143.7 1481.64 Z" fill="#000000" fill-rule="nonzero" fill-opacity="1"></path><path clip-path="url(#clip170)" d="M1493.33 1454.1 Q1489.72 1454.1 1487.89 1457.66 Q1486.08 1461.2 1486.08 1468.33 Q1486.08 1475.44 1487.89 1479.01 Q1489.72 1482.55 1493.33 1482.55 Q1496.96 1482.55 1498.77 1479.01 Q1500.6 1475.44 1500.6 1468.33 Q1500.6 1461.2 1498.77 1457.66 Q1496.96 1454.1 1493.33 1454.1 M1493.33 1450.39 Q1499.14 1450.39 1502.19 1455 Q1505.27 1459.58 1505.27 1468.33 Q1505.27 1477.06 1502.19 1481.67 Q1499.14 1486.25 1493.33 1486.25 Q1487.52 1486.25 1484.44 1481.67 Q1481.38 1477.06 1481.38 1468.33 Q1481.38 1459.58 1484.44 1455 Q1487.52 1450.39 1493.33 1450.39 Z" fill="#000000" fill-rule="nonzero" fill-opacity="1"></path><path clip-path="url(#clip170)" d="M1513.49 1479.7 L1518.37 1479.7 L1518.37 1485.58 L1513.49 1485.58 L1513.49 1479.7 Z" fill="#000000" fill-rule="nonzero" fill-opacity="1"></path><path clip-path="url(#clip170)" d="M1542.73 1466.95 Q1546.08 1467.66 1547.96 1469.93 Q1549.86 1472.2 1549.86 1475.53 Q1549.86 1480.65 1546.34 1483.45 Q1542.82 1486.25 1536.34 1486.25 Q1534.16 1486.25 1531.85 1485.81 Q1529.56 1485.39 1527.1 1484.54 L1527.1 1480.02 Q1529.05 1481.16 1531.36 1481.74 Q1533.68 1482.32 1536.2 1482.32 Q1540.6 1482.32 1542.89 1480.58 Q1545.2 1478.84 1545.2 1475.53 Q1545.2 1472.48 1543.05 1470.77 Q1540.92 1469.03 1537.1 1469.03 L1533.07 1469.03 L1533.07 1465.19 L1537.29 1465.19 Q1540.74 1465.19 1542.56 1463.82 Q1544.39 1462.43 1544.39 1459.84 Q1544.39 1457.18 1542.5 1455.77 Q1540.62 1454.33 1537.1 1454.33 Q1535.18 1454.33 1532.98 1454.75 Q1530.78 1455.16 1528.14 1456.04 L1528.14 1451.88 Q1530.81 1451.14 1533.12 1450.77 Q1535.46 1450.39 1537.52 1450.39 Q1542.84 1450.39 1545.94 1452.83 Q1549.05 1455.23 1549.05 1459.35 Q1549.05 1462.22 1547.4 1464.21 Q1545.76 1466.18 1542.73 1466.95 Z" fill="#000000" fill-rule="nonzero" fill-opacity="1"></path><path clip-path="url(#clip170)" d="M1882.13 1454.1 Q1878.52 1454.1 1876.69 1457.66 Q1874.88 1461.2 1874.88 1468.33 Q1874.88 1475.44 1876.69 1479.01 Q1878.52 1482.55 1882.13 1482.55 Q1885.76 1482.55 1887.57 1479.01 Q1889.4 1475.44 1889.4 1468.33 Q1889.4 1461.2 1887.57 1457.66 Q1885.76 1454.1 1882.13 1454.1 M1882.13 1450.39 Q1887.94 1450.39 1890.99 1455 Q1894.07 1459.58 1894.07 1468.33 Q1894.07 1477.06 1890.99 1481.67 Q1887.94 1486.25 1882.13 1486.25 Q1876.32 1486.25 1873.24 1481.67 Q1870.18 1477.06 1870.18 1468.33 Q1870.18 1459.58 1873.24 1455 Q1876.32 1450.39 1882.13 1450.39 Z" fill="#000000" fill-rule="nonzero" fill-opacity="1"></path><path clip-path="url(#clip170)" d="M1902.29 1479.7 L1907.17 1479.7 L1907.17 1485.58 L1902.29 1485.58 L1902.29 1479.7 Z" fill="#000000" fill-rule="nonzero" fill-opacity="1"></path><path clip-path="url(#clip170)" d="M1930.21 1455.09 L1918.4 1473.54 L1930.21 1473.54 L1930.21 1455.09 M1928.98 1451.02 L1934.86 1451.02 L1934.86 1473.54 L1939.79 1473.54 L1939.79 1477.43 L1934.86 1477.43 L1934.86 1485.58 L1930.21 1485.58 L1930.21 1477.43 L1914.6 1477.43 L1914.6 1472.92 L1928.98 1451.02 Z" fill="#000000" fill-rule="nonzero" fill-opacity="1"></path><path clip-path="url(#clip170)" d="M2272.23 1454.1 Q2268.62 1454.1 2266.79 1457.66 Q2264.99 1461.2 2264.99 1468.33 Q2264.99 1475.44 2266.79 1479.01 Q2268.62 1482.55 2272.23 1482.55 Q2275.87 1482.55 2277.67 1479.01 Q2279.5 1475.44 2279.5 1468.33 Q2279.5 1461.2 2277.67 1457.66 Q2275.87 1454.1 2272.23 1454.1 M2272.23 1450.39 Q2278.04 1450.39 2281.1 1455 Q2284.18 1459.58 2284.18 1468.33 Q2284.18 1477.06 2281.1 1481.67 Q2278.04 1486.25 2272.23 1486.25 Q2266.42 1486.25 2263.34 1481.67 Q2260.29 1477.06 2260.29 1468.33 Q2260.29 1459.58 2263.34 1455 Q2266.42 1450.39 2272.23 1450.39 Z" fill="#000000" fill-rule="nonzero" fill-opacity="1"></path><path clip-path="url(#clip170)" d="M2292.4 1479.7 L2297.28 1479.7 L2297.28 1485.58 L2292.4 1485.58 L2292.4 1479.7 Z" fill="#000000" fill-rule="nonzero" fill-opacity="1"></path><path clip-path="url(#clip170)" d="M2307.51 1451.02 L2325.87 1451.02 L2325.87 1454.96 L2311.79 1454.96 L2311.79 1463.43 Q2312.81 1463.08 2313.83 1462.92 Q2314.85 1462.73 2315.87 1462.73 Q2321.65 1462.73 2325.03 1465.9 Q2328.41 1469.08 2328.41 1474.49 Q2328.41 1480.07 2324.94 1483.17 Q2321.47 1486.25 2315.15 1486.25 Q2312.97 1486.25 2310.71 1485.88 Q2308.46 1485.51 2306.05 1484.77 L2306.05 1480.07 Q2308.14 1481.2 2310.36 1481.76 Q2312.58 1482.32 2315.06 1482.32 Q2319.06 1482.32 2321.4 1480.21 Q2323.74 1478.1 2323.74 1474.49 Q2323.74 1470.88 2321.4 1468.77 Q2319.06 1466.67 2315.06 1466.67 Q2313.18 1466.67 2311.31 1467.08 Q2309.46 1467.5 2307.51 1468.38 L2307.51 1451.02 Z" fill="#000000" fill-rule="nonzero" fill-opacity="1"></path><path clip-path="url(#clip170)" d="M1331.38 1537.87 Q1330.39 1537.3 1329.21 1537.04 Q1328.07 1536.76 1326.67 1536.76 Q1321.7 1536.76 1319.03 1540 Q1316.39 1543.22 1316.39 1549.27 L1316.39 1568.04 L1310.5 1568.04 L1310.5 1532.4 L1316.39 1532.4 L1316.39 1537.93 Q1318.23 1534.69 1321.19 1533.13 Q1324.15 1531.54 1328.39 1531.54 Q1328.99 1531.54 1329.72 1531.63 Q1330.45 1531.7 1331.35 1531.85 L1331.38 1537.87 Z" fill="#000000" fill-rule="nonzero" fill-opacity="1"></path><polyline clip-path="url(#clip170)" style="stroke:#000000; stroke-linecap:round; stroke-linejoin:round; stroke-width:4; stroke-opacity:1; fill:none" points="289.119,1423.18 289.119,123.472 "></polyline>
<polyline clip-path="url(#clip170)" style="stroke:#000000; stroke-linecap:round; stroke-linejoin:round; stroke-width:4; stroke-opacity:1; fill:none" points="289.119,1233.27 308.017,1233.27 "></polyline>
<polyline clip-path="url(#clip170)" style="stroke:#000000; stroke-linecap:round; stroke-linejoin:round; stroke-width:4; stroke-opacity:1; fill:none" points="289.119,819.26 308.017,819.26 "></polyline>
<polyline clip-path="url(#clip170)" style="stroke:#000000; stroke-linecap:round; stroke-linejoin:round; stroke-width:4; stroke-opacity:1; fill:none" points="289.119,405.251 308.017,405.251 "></polyline>
<path clip-path="url(#clip170)" d="M115.74 1253.06 L123.379 1253.06 L123.379 1226.7 L115.069 1228.36 L115.069 1224.1 L123.333 1222.44 L128.009 1222.44 L128.009 1253.06 L135.647 1253.06 L135.647 1257 L115.74 1257 L115.74 1253.06 Z" fill="#000000" fill-rule="nonzero" fill-opacity="1"></path><path clip-path="url(#clip170)" d="M155.092 1225.52 Q151.481 1225.52 149.652 1229.08 Q147.846 1232.62 147.846 1239.75 Q147.846 1246.86 149.652 1250.42 Q151.481 1253.97 155.092 1253.97 Q158.726 1253.97 160.532 1250.42 Q162.36 1246.86 162.36 1239.75 Q162.36 1232.62 160.532 1229.08 Q158.726 1225.52 155.092 1225.52 M155.092 1221.81 Q160.902 1221.81 163.958 1226.42 Q167.036 1231 167.036 1239.75 Q167.036 1248.48 163.958 1253.09 Q160.902 1257.67 155.092 1257.67 Q149.282 1257.67 146.203 1253.09 Q143.147 1248.48 143.147 1239.75 Q143.147 1231 146.203 1226.42 Q149.282 1221.81 155.092 1221.81 Z" fill="#000000" fill-rule="nonzero" fill-opacity="1"></path><path clip-path="url(#clip170)" d="M167.036 1215.91 L191.148 1215.91 L191.148 1219.11 L167.036 1219.11 L167.036 1215.91 Z" fill="#000000" fill-rule="nonzero" fill-opacity="1"></path><path clip-path="url(#clip170)" d="M202.621 1226.39 L215.88 1226.39 L215.88 1229.59 L198.05 1229.59 L198.05 1226.39 Q200.213 1224.15 203.937 1220.39 Q207.68 1216.61 208.639 1215.52 Q210.463 1213.47 211.178 1212.06 Q211.912 1210.63 211.912 1209.26 Q211.912 1207.02 210.332 1205.61 Q208.771 1204.2 206.25 1204.2 Q204.464 1204.2 202.47 1204.82 Q200.495 1205.44 198.238 1206.7 L198.238 1202.86 Q200.533 1201.94 202.526 1201.47 Q204.52 1201 206.175 1201 Q210.539 1201 213.134 1203.18 Q215.73 1205.36 215.73 1209.01 Q215.73 1210.74 215.071 1212.3 Q214.432 1213.85 212.72 1215.95 Q212.25 1216.5 209.73 1219.11 Q207.21 1221.71 202.621 1226.39 Z" fill="#000000" fill-rule="nonzero" fill-opacity="1"></path><path clip-path="url(#clip170)" d="M223.854 1224.81 L227.823 1224.81 L227.823 1229.59 L223.854 1229.59 L223.854 1224.81 Z" fill="#000000" fill-rule="nonzero" fill-opacity="1"></path><path clip-path="url(#clip170)" d="M236.136 1201.51 L251.051 1201.51 L251.051 1204.7 L239.615 1204.7 L239.615 1211.59 Q240.443 1211.31 241.27 1211.17 Q242.098 1211.02 242.926 1211.02 Q247.627 1211.02 250.373 1213.6 Q253.119 1216.18 253.119 1220.58 Q253.119 1225.11 250.298 1227.63 Q247.477 1230.13 242.343 1230.13 Q240.575 1230.13 238.731 1229.83 Q236.907 1229.53 234.951 1228.93 L234.951 1225.11 Q236.644 1226.03 238.449 1226.48 Q240.255 1226.94 242.267 1226.94 Q245.521 1226.94 247.421 1225.22 Q249.32 1223.51 249.32 1220.58 Q249.32 1217.64 247.421 1215.93 Q245.521 1214.22 242.267 1214.22 Q240.744 1214.22 239.22 1214.56 Q237.716 1214.9 236.136 1215.61 L236.136 1201.51 Z" fill="#000000" fill-rule="nonzero" fill-opacity="1"></path><path clip-path="url(#clip170)" d="M114.931 839.053 L122.57 839.053 L122.57 812.687 L114.26 814.354 L114.26 810.095 L122.524 808.428 L127.2 808.428 L127.2 839.053 L134.839 839.053 L134.839 842.988 L114.931 842.988 L114.931 839.053 Z" fill="#000000" fill-rule="nonzero" fill-opacity="1"></path><path clip-path="url(#clip170)" d="M154.283 811.507 Q150.672 811.507 148.843 815.071 Q147.038 818.613 147.038 825.743 Q147.038 832.849 148.843 836.414 Q150.672 839.956 154.283 839.956 Q157.917 839.956 159.723 836.414 Q161.552 832.849 161.552 825.743 Q161.552 818.613 159.723 815.071 Q157.917 811.507 154.283 811.507 M154.283 807.803 Q160.093 807.803 163.149 812.409 Q166.227 816.993 166.227 825.743 Q166.227 834.469 163.149 839.076 Q160.093 843.659 154.283 843.659 Q148.473 843.659 145.394 839.076 Q142.339 834.469 142.339 825.743 Q142.339 816.993 145.394 812.409 Q148.473 807.803 154.283 807.803 Z" fill="#000000" fill-rule="nonzero" fill-opacity="1"></path><path clip-path="url(#clip170)" d="M166.227 801.904 L190.339 801.904 L190.339 805.102 L166.227 805.102 L166.227 801.904 Z" fill="#000000" fill-rule="nonzero" fill-opacity="1"></path><path clip-path="url(#clip170)" d="M201.812 812.38 L215.071 812.38 L215.071 815.578 L197.241 815.578 L197.241 812.38 Q199.404 810.142 203.128 806.381 Q206.871 802.6 207.83 801.509 Q209.655 799.459 210.369 798.049 Q211.103 796.619 211.103 795.246 Q211.103 793.008 209.523 791.598 Q207.962 790.187 205.442 790.187 Q203.655 790.187 201.661 790.808 Q199.686 791.428 197.43 792.688 L197.43 788.852 Q199.724 787.93 201.718 787.46 Q203.711 786.99 205.366 786.99 Q209.73 786.99 212.325 789.171 Q214.921 791.353 214.921 795.002 Q214.921 796.732 214.263 798.293 Q213.623 799.835 211.912 801.942 Q211.441 802.487 208.921 805.102 Q206.401 807.697 201.812 812.38 Z" fill="#000000" fill-rule="nonzero" fill-opacity="1"></path><path clip-path="url(#clip170)" d="M223.046 810.8 L227.014 810.8 L227.014 815.578 L223.046 815.578 L223.046 810.8 Z" fill="#000000" fill-rule="nonzero" fill-opacity="1"></path><path clip-path="url(#clip170)" d="M243.415 789.999 Q240.481 789.999 238.995 792.895 Q237.528 795.773 237.528 801.566 Q237.528 807.34 238.995 810.236 Q240.481 813.114 243.415 813.114 Q246.367 813.114 247.834 810.236 Q249.32 807.34 249.32 801.566 Q249.32 795.773 247.834 792.895 Q246.367 789.999 243.415 789.999 M243.415 786.99 Q248.135 786.99 250.618 790.732 Q253.119 794.456 253.119 801.566 Q253.119 808.656 250.618 812.399 Q248.135 816.123 243.415 816.123 Q238.694 816.123 236.192 812.399 Q233.71 808.656 233.71 801.566 Q233.71 794.456 236.192 790.732 Q238.694 786.99 243.415 786.99 Z" fill="#000000" fill-rule="nonzero" fill-opacity="1"></path><path clip-path="url(#clip170)" d="M115.74 425.043 L123.379 425.043 L123.379 398.678 L115.069 400.344 L115.069 396.085 L123.333 394.418 L128.009 394.418 L128.009 425.043 L135.647 425.043 L135.647 428.978 L115.74 428.978 L115.74 425.043 Z" fill="#000000" fill-rule="nonzero" fill-opacity="1"></path><path clip-path="url(#clip170)" d="M155.092 397.497 Q151.481 397.497 149.652 401.062 Q147.846 404.603 147.846 411.733 Q147.846 418.839 149.652 422.404 Q151.481 425.946 155.092 425.946 Q158.726 425.946 160.532 422.404 Q162.36 418.839 162.36 411.733 Q162.36 404.603 160.532 401.062 Q158.726 397.497 155.092 397.497 M155.092 393.793 Q160.902 393.793 163.958 398.4 Q167.036 402.983 167.036 411.733 Q167.036 420.46 163.958 425.066 Q160.902 429.65 155.092 429.65 Q149.282 429.65 146.203 425.066 Q143.147 420.46 143.147 411.733 Q143.147 402.983 146.203 398.4 Q149.282 393.793 155.092 393.793 Z" fill="#000000" fill-rule="nonzero" fill-opacity="1"></path><path clip-path="url(#clip170)" d="M167.036 387.895 L191.148 387.895 L191.148 391.092 L167.036 391.092 L167.036 387.895 Z" fill="#000000" fill-rule="nonzero" fill-opacity="1"></path><path clip-path="url(#clip170)" d="M200.006 398.371 L206.213 398.371 L206.213 376.949 L199.461 378.303 L199.461 374.842 L206.175 373.488 L209.974 373.488 L209.974 398.371 L216.181 398.371 L216.181 401.568 L200.006 401.568 L200.006 398.371 Z" fill="#000000" fill-rule="nonzero" fill-opacity="1"></path><path clip-path="url(#clip170)" d="M223.854 396.791 L227.823 396.791 L227.823 401.568 L223.854 401.568 L223.854 396.791 Z" fill="#000000" fill-rule="nonzero" fill-opacity="1"></path><path clip-path="url(#clip170)" d="M236.136 373.488 L251.051 373.488 L251.051 376.685 L239.615 376.685 L239.615 383.569 Q240.443 383.287 241.27 383.155 Q242.098 383.005 242.926 383.005 Q247.627 383.005 250.373 385.581 Q253.119 388.158 253.119 392.559 Q253.119 397.092 250.298 399.612 Q247.477 402.113 242.343 402.113 Q240.575 402.113 238.731 401.812 Q236.907 401.511 234.951 400.91 L234.951 397.092 Q236.644 398.013 238.449 398.465 Q240.255 398.916 242.267 398.916 Q245.521 398.916 247.421 397.204 Q249.32 395.493 249.32 392.559 Q249.32 389.625 247.421 387.913 Q245.521 386.202 242.267 386.202 Q240.744 386.202 239.22 386.54 Q237.716 386.879 236.136 387.594 L236.136 373.488 Z" fill="#000000" fill-rule="nonzero" fill-opacity="1"></path><path clip-path="url(#clip170)" d="M22.818 773.326 L46.4666 782.047 L46.4666 764.573 L22.818 773.326 M16.4842 776.954 L16.4842 769.666 L64.0042 751.555 L64.0042 758.239 L51.8138 762.568 L51.8138 783.989 L64.0042 788.317 L64.0042 795.097 L16.4842 776.954 Z" fill="#000000" fill-rule="nonzero" fill-opacity="1"></path><path clip-path="url(#clip170)" d="M1231.01 20.1573 L1219.91 50.2555 L1242.15 50.2555 L1231.01 20.1573 M1226.39 12.096 L1235.67 12.096 L1258.72 72.576 L1250.21 72.576 L1244.7 57.061 L1217.44 57.061 L1211.93 72.576 L1203.3 72.576 L1226.39 12.096 Z" fill="#000000" fill-rule="nonzero" fill-opacity="1"></path><path clip-path="url(#clip170)" d="M1288.25 27.2059 L1296.15 27.2059 L1310.32 65.2844 L1324.5 27.2059 L1332.4 27.2059 L1315.39 72.576 L1305.26 72.576 L1288.25 27.2059 Z" fill="#000000" fill-rule="nonzero" fill-opacity="1"></path><path clip-path="url(#clip170)" d="M1371.61 28.5427 L1371.61 35.5912 Q1368.45 33.9709 1365.05 33.1607 Q1361.65 32.3505 1358 32.3505 Q1352.45 32.3505 1349.66 34.0519 Q1346.9 35.7533 1346.9 39.156 Q1346.9 41.7486 1348.89 43.2475 Q1350.87 44.7058 1356.87 46.0426 L1359.42 46.6097 Q1367.36 48.3111 1370.68 51.4303 Q1374.04 54.509 1374.04 60.0587 Q1374.04 66.3781 1369.02 70.0644 Q1364.04 73.7508 1355.29 73.7508 Q1351.64 73.7508 1347.67 73.0216 Q1343.74 72.3329 1339.37 70.9151 L1339.37 63.2184 Q1343.5 65.3654 1347.51 66.4591 Q1351.52 67.5124 1355.45 67.5124 Q1360.72 67.5124 1363.55 65.73 Q1366.39 63.9071 1366.39 60.6258 Q1366.39 57.5877 1364.32 55.9673 Q1362.3 54.3469 1355.37 52.8481 L1352.78 52.2405 Q1345.85 50.7821 1342.77 47.7845 Q1339.69 44.7463 1339.69 39.4801 Q1339.69 33.0797 1344.23 29.5959 Q1348.77 26.1121 1357.11 26.1121 Q1361.24 26.1121 1364.89 26.7198 Q1368.54 27.3274 1371.61 28.5427 Z" fill="#000000" fill-rule="nonzero" fill-opacity="1"></path><path clip-path="url(#clip170)" d="M1438.58 34.1734 Q1437.32 33.4443 1435.82 33.1202 Q1434.36 32.7556 1432.58 32.7556 Q1426.26 32.7556 1422.86 36.8875 Q1419.5 40.9789 1419.5 48.6757 L1419.5 72.576 L1412 72.576 L1412 27.2059 L1419.5 27.2059 L1419.5 34.2544 Q1421.85 30.1225 1425.61 28.1376 Q1429.38 26.1121 1434.77 26.1121 Q1435.54 26.1121 1436.47 26.2337 Q1437.4 26.3147 1438.54 26.5172 L1438.58 34.1734 Z" fill="#000000" fill-rule="nonzero" fill-opacity="1"></path><circle clip-path="url(#clip172)" cx="347.524" cy="1008.1" r="14.4" fill="#009af9" fill-rule="evenodd" fill-opacity="1" stroke="#000000" stroke-opacity="1" stroke-width="3.2"></circle>
<circle clip-path="url(#clip172)" cx="386.461" cy="1008.1" r="14.4" fill="#009af9" fill-rule="evenodd" fill-opacity="1" stroke="#000000" stroke-opacity="1" stroke-width="3.2"></circle>
<circle clip-path="url(#clip172)" cx="425.397" cy="1008.1" r="14.4" fill="#009af9" fill-rule="evenodd" fill-opacity="1" stroke="#000000" stroke-opacity="1" stroke-width="3.2"></circle>
<circle clip-path="url(#clip172)" cx="464.334" cy="1008.1" r="14.4" fill="#009af9" fill-rule="evenodd" fill-opacity="1" stroke="#000000" stroke-opacity="1" stroke-width="3.2"></circle>
<circle clip-path="url(#clip172)" cx="503.27" cy="1008.1" r="14.4" fill="#009af9" fill-rule="evenodd" fill-opacity="1" stroke="#000000" stroke-opacity="1" stroke-width="3.2"></circle>
<circle clip-path="url(#clip172)" cx="542.207" cy="1008.1" r="14.4" fill="#009af9" fill-rule="evenodd" fill-opacity="1" stroke="#000000" stroke-opacity="1" stroke-width="3.2"></circle>
<circle clip-path="url(#clip172)" cx="581.143" cy="1008.1" r="14.4" fill="#009af9" fill-rule="evenodd" fill-opacity="1" stroke="#000000" stroke-opacity="1" stroke-width="3.2"></circle>
<circle clip-path="url(#clip172)" cx="620.08" cy="1008.1" r="14.4" fill="#009af9" fill-rule="evenodd" fill-opacity="1" stroke="#000000" stroke-opacity="1" stroke-width="3.2"></circle>
<circle clip-path="url(#clip172)" cx="659.016" cy="1008.1" r="14.4" fill="#009af9" fill-rule="evenodd" fill-opacity="1" stroke="#000000" stroke-opacity="1" stroke-width="3.2"></circle>
<circle clip-path="url(#clip172)" cx="697.953" cy="1008.1" r="14.4" fill="#009af9" fill-rule="evenodd" fill-opacity="1" stroke="#000000" stroke-opacity="1" stroke-width="3.2"></circle>
<circle clip-path="url(#clip172)" cx="736.89" cy="1008.1" r="14.4" fill="#009af9" fill-rule="evenodd" fill-opacity="1" stroke="#000000" stroke-opacity="1" stroke-width="3.2"></circle>
<circle clip-path="url(#clip172)" cx="775.826" cy="1008.1" r="14.4" fill="#009af9" fill-rule="evenodd" fill-opacity="1" stroke="#000000" stroke-opacity="1" stroke-width="3.2"></circle>
<circle clip-path="url(#clip172)" cx="814.763" cy="1008.1" r="14.4" fill="#009af9" fill-rule="evenodd" fill-opacity="1" stroke="#000000" stroke-opacity="1" stroke-width="3.2"></circle>
<circle clip-path="url(#clip172)" cx="853.699" cy="1008.1" r="14.4" fill="#009af9" fill-rule="evenodd" fill-opacity="1" stroke="#000000" stroke-opacity="1" stroke-width="3.2"></circle>
<circle clip-path="url(#clip172)" cx="892.636" cy="1008.1" r="14.4" fill="#009af9" fill-rule="evenodd" fill-opacity="1" stroke="#000000" stroke-opacity="1" stroke-width="3.2"></circle>
<circle clip-path="url(#clip172)" cx="931.572" cy="1008.1" r="14.4" fill="#009af9" fill-rule="evenodd" fill-opacity="1" stroke="#000000" stroke-opacity="1" stroke-width="3.2"></circle>
<circle clip-path="url(#clip172)" cx="970.509" cy="1008.1" r="14.4" fill="#009af9" fill-rule="evenodd" fill-opacity="1" stroke="#000000" stroke-opacity="1" stroke-width="3.2"></circle>
<circle clip-path="url(#clip172)" cx="1009.45" cy="1008.1" r="14.4" fill="#009af9" fill-rule="evenodd" fill-opacity="1" stroke="#000000" stroke-opacity="1" stroke-width="3.2"></circle>
<circle clip-path="url(#clip172)" cx="1048.38" cy="1008.1" r="14.4" fill="#009af9" fill-rule="evenodd" fill-opacity="1" stroke="#000000" stroke-opacity="1" stroke-width="3.2"></circle>
<circle clip-path="url(#clip172)" cx="1087.32" cy="1008.1" r="14.4" fill="#009af9" fill-rule="evenodd" fill-opacity="1" stroke="#000000" stroke-opacity="1" stroke-width="3.2"></circle>
<circle clip-path="url(#clip172)" cx="1126.25" cy="1008.1" r="14.4" fill="#009af9" fill-rule="evenodd" fill-opacity="1" stroke="#000000" stroke-opacity="1" stroke-width="3.2"></circle>
<circle clip-path="url(#clip172)" cx="1165.19" cy="1008.1" r="14.4" fill="#009af9" fill-rule="evenodd" fill-opacity="1" stroke="#000000" stroke-opacity="1" stroke-width="3.2"></circle>
<circle clip-path="url(#clip172)" cx="1204.13" cy="1008.1" r="14.4" fill="#009af9" fill-rule="evenodd" fill-opacity="1" stroke="#000000" stroke-opacity="1" stroke-width="3.2"></circle>
<circle clip-path="url(#clip172)" cx="1243.06" cy="1008.1" r="14.4" fill="#009af9" fill-rule="evenodd" fill-opacity="1" stroke="#000000" stroke-opacity="1" stroke-width="3.2"></circle>
<circle clip-path="url(#clip172)" cx="1282" cy="1008.1" r="14.4" fill="#009af9" fill-rule="evenodd" fill-opacity="1" stroke="#000000" stroke-opacity="1" stroke-width="3.2"></circle>
<circle clip-path="url(#clip172)" cx="1320.94" cy="1008.1" r="14.4" fill="#009af9" fill-rule="evenodd" fill-opacity="1" stroke="#000000" stroke-opacity="1" stroke-width="3.2"></circle>
<circle clip-path="url(#clip172)" cx="1359.87" cy="1008.1" r="14.4" fill="#009af9" fill-rule="evenodd" fill-opacity="1" stroke="#000000" stroke-opacity="1" stroke-width="3.2"></circle>
<circle clip-path="url(#clip172)" cx="1398.81" cy="1008.1" r="14.4" fill="#009af9" fill-rule="evenodd" fill-opacity="1" stroke="#000000" stroke-opacity="1" stroke-width="3.2"></circle>
<circle clip-path="url(#clip172)" cx="1437.75" cy="1006.85" r="14.4" fill="#009af9" fill-rule="evenodd" fill-opacity="1" stroke="#000000" stroke-opacity="1" stroke-width="3.2"></circle>
<circle clip-path="url(#clip172)" cx="1476.68" cy="999.376" r="14.4" fill="#009af9" fill-rule="evenodd" fill-opacity="1" stroke="#000000" stroke-opacity="1" stroke-width="3.2"></circle>
<circle clip-path="url(#clip172)" cx="1515.62" cy="991.898" r="14.4" fill="#009af9" fill-rule="evenodd" fill-opacity="1" stroke="#000000" stroke-opacity="1" stroke-width="3.2"></circle>
<circle clip-path="url(#clip172)" cx="1554.56" cy="984.421" r="14.4" fill="#009af9" fill-rule="evenodd" fill-opacity="1" stroke="#000000" stroke-opacity="1" stroke-width="3.2"></circle>
<circle clip-path="url(#clip172)" cx="1593.49" cy="976.943" r="14.4" fill="#009af9" fill-rule="evenodd" fill-opacity="1" stroke="#000000" stroke-opacity="1" stroke-width="3.2"></circle>
<circle clip-path="url(#clip172)" cx="1632.43" cy="969.465" r="14.4" fill="#009af9" fill-rule="evenodd" fill-opacity="1" stroke="#000000" stroke-opacity="1" stroke-width="3.2"></circle>
<circle clip-path="url(#clip172)" cx="1671.37" cy="961.987" r="14.4" fill="#009af9" fill-rule="evenodd" fill-opacity="1" stroke="#000000" stroke-opacity="1" stroke-width="3.2"></circle>
<circle clip-path="url(#clip172)" cx="1710.3" cy="954.51" r="14.4" fill="#009af9" fill-rule="evenodd" fill-opacity="1" stroke="#000000" stroke-opacity="1" stroke-width="3.2"></circle>
<circle clip-path="url(#clip172)" cx="1749.24" cy="947.032" r="14.4" fill="#009af9" fill-rule="evenodd" fill-opacity="1" stroke="#000000" stroke-opacity="1" stroke-width="3.2"></circle>
<circle clip-path="url(#clip172)" cx="1788.18" cy="939.554" r="14.4" fill="#009af9" fill-rule="evenodd" fill-opacity="1" stroke="#000000" stroke-opacity="1" stroke-width="3.2"></circle>
<circle clip-path="url(#clip172)" cx="1827.11" cy="932.076" r="14.4" fill="#009af9" fill-rule="evenodd" fill-opacity="1" stroke="#000000" stroke-opacity="1" stroke-width="3.2"></circle>
<circle clip-path="url(#clip172)" cx="1866.05" cy="924.598" r="14.4" fill="#009af9" fill-rule="evenodd" fill-opacity="1" stroke="#000000" stroke-opacity="1" stroke-width="3.2"></circle>
<circle clip-path="url(#clip172)" cx="1904.99" cy="917.121" r="14.4" fill="#009af9" fill-rule="evenodd" fill-opacity="1" stroke="#000000" stroke-opacity="1" stroke-width="3.2"></circle>
<circle clip-path="url(#clip172)" cx="1943.92" cy="909.643" r="14.4" fill="#009af9" fill-rule="evenodd" fill-opacity="1" stroke="#000000" stroke-opacity="1" stroke-width="3.2"></circle>
<circle clip-path="url(#clip172)" cx="1982.86" cy="902.165" r="14.4" fill="#009af9" fill-rule="evenodd" fill-opacity="1" stroke="#000000" stroke-opacity="1" stroke-width="3.2"></circle>
<circle clip-path="url(#clip172)" cx="2021.8" cy="894.687" r="14.4" fill="#009af9" fill-rule="evenodd" fill-opacity="1" stroke="#000000" stroke-opacity="1" stroke-width="3.2"></circle>
<circle clip-path="url(#clip172)" cx="2060.73" cy="887.21" r="14.4" fill="#009af9" fill-rule="evenodd" fill-opacity="1" stroke="#000000" stroke-opacity="1" stroke-width="3.2"></circle>
<circle clip-path="url(#clip172)" cx="2099.67" cy="879.732" r="14.4" fill="#009af9" fill-rule="evenodd" fill-opacity="1" stroke="#000000" stroke-opacity="1" stroke-width="3.2"></circle>
<circle clip-path="url(#clip172)" cx="2138.6" cy="872.254" r="14.4" fill="#009af9" fill-rule="evenodd" fill-opacity="1" stroke="#000000" stroke-opacity="1" stroke-width="3.2"></circle>
<circle clip-path="url(#clip172)" cx="2177.54" cy="862.105" r="14.4" fill="#009af9" fill-rule="evenodd" fill-opacity="1" stroke="#000000" stroke-opacity="1" stroke-width="3.2"></circle>
<circle clip-path="url(#clip172)" cx="2216.48" cy="848.839" r="14.4" fill="#009af9" fill-rule="evenodd" fill-opacity="1" stroke="#000000" stroke-opacity="1" stroke-width="3.2"></circle>
<circle clip-path="url(#clip172)" cx="2255.41" cy="835.574" r="14.4" fill="#009af9" fill-rule="evenodd" fill-opacity="1" stroke="#000000" stroke-opacity="1" stroke-width="3.2"></circle>
<circle clip-path="url(#clip172)" cx="2294.35" cy="822.309" r="14.4" fill="#009af9" fill-rule="evenodd" fill-opacity="1" stroke="#000000" stroke-opacity="1" stroke-width="3.2"></circle>
<circle clip-path="url(#clip172)" cx="347.524" cy="1386.4" r="14.4" fill="#e26f46" fill-rule="evenodd" fill-opacity="1" stroke="#000000" stroke-opacity="1" stroke-width="3.2"></circle>
<circle clip-path="url(#clip172)" cx="386.461" cy="1386.4" r="14.4" fill="#e26f46" fill-rule="evenodd" fill-opacity="1" stroke="#000000" stroke-opacity="1" stroke-width="3.2"></circle>
<circle clip-path="url(#clip172)" cx="425.397" cy="1386.4" r="14.4" fill="#e26f46" fill-rule="evenodd" fill-opacity="1" stroke="#000000" stroke-opacity="1" stroke-width="3.2"></circle>
<circle clip-path="url(#clip172)" cx="464.334" cy="1386.4" r="14.4" fill="#e26f46" fill-rule="evenodd" fill-opacity="1" stroke="#000000" stroke-opacity="1" stroke-width="3.2"></circle>
<circle clip-path="url(#clip172)" cx="503.27" cy="1386.4" r="14.4" fill="#e26f46" fill-rule="evenodd" fill-opacity="1" stroke="#000000" stroke-opacity="1" stroke-width="3.2"></circle>
<circle clip-path="url(#clip172)" cx="542.207" cy="1386.4" r="14.4" fill="#e26f46" fill-rule="evenodd" fill-opacity="1" stroke="#000000" stroke-opacity="1" stroke-width="3.2"></circle>
<circle clip-path="url(#clip172)" cx="581.143" cy="1386.4" r="14.4" fill="#e26f46" fill-rule="evenodd" fill-opacity="1" stroke="#000000" stroke-opacity="1" stroke-width="3.2"></circle>
<circle clip-path="url(#clip172)" cx="620.08" cy="1386.4" r="14.4" fill="#e26f46" fill-rule="evenodd" fill-opacity="1" stroke="#000000" stroke-opacity="1" stroke-width="3.2"></circle>
<circle clip-path="url(#clip172)" cx="659.016" cy="1386.4" r="14.4" fill="#e26f46" fill-rule="evenodd" fill-opacity="1" stroke="#000000" stroke-opacity="1" stroke-width="3.2"></circle>
<circle clip-path="url(#clip172)" cx="697.953" cy="1386.4" r="14.4" fill="#e26f46" fill-rule="evenodd" fill-opacity="1" stroke="#000000" stroke-opacity="1" stroke-width="3.2"></circle>
<circle clip-path="url(#clip172)" cx="736.89" cy="1386.4" r="14.4" fill="#e26f46" fill-rule="evenodd" fill-opacity="1" stroke="#000000" stroke-opacity="1" stroke-width="3.2"></circle>
<circle clip-path="url(#clip172)" cx="775.826" cy="1386.4" r="14.4" fill="#e26f46" fill-rule="evenodd" fill-opacity="1" stroke="#000000" stroke-opacity="1" stroke-width="3.2"></circle>
<circle clip-path="url(#clip172)" cx="814.763" cy="1386.4" r="14.4" fill="#e26f46" fill-rule="evenodd" fill-opacity="1" stroke="#000000" stroke-opacity="1" stroke-width="3.2"></circle>
<circle clip-path="url(#clip172)" cx="853.699" cy="1386.4" r="14.4" fill="#e26f46" fill-rule="evenodd" fill-opacity="1" stroke="#000000" stroke-opacity="1" stroke-width="3.2"></circle>
<circle clip-path="url(#clip172)" cx="892.636" cy="1386.4" r="14.4" fill="#e26f46" fill-rule="evenodd" fill-opacity="1" stroke="#000000" stroke-opacity="1" stroke-width="3.2"></circle>
<circle clip-path="url(#clip172)" cx="931.572" cy="1386.4" r="14.4" fill="#e26f46" fill-rule="evenodd" fill-opacity="1" stroke="#000000" stroke-opacity="1" stroke-width="3.2"></circle>
<circle clip-path="url(#clip172)" cx="970.509" cy="1386.4" r="14.4" fill="#e26f46" fill-rule="evenodd" fill-opacity="1" stroke="#000000" stroke-opacity="1" stroke-width="3.2"></circle>
<circle clip-path="url(#clip172)" cx="1009.45" cy="1386.4" r="14.4" fill="#e26f46" fill-rule="evenodd" fill-opacity="1" stroke="#000000" stroke-opacity="1" stroke-width="3.2"></circle>
<circle clip-path="url(#clip172)" cx="1048.38" cy="1386.4" r="14.4" fill="#e26f46" fill-rule="evenodd" fill-opacity="1" stroke="#000000" stroke-opacity="1" stroke-width="3.2"></circle>
<circle clip-path="url(#clip172)" cx="1087.32" cy="1386.4" r="14.4" fill="#e26f46" fill-rule="evenodd" fill-opacity="1" stroke="#000000" stroke-opacity="1" stroke-width="3.2"></circle>
<circle clip-path="url(#clip172)" cx="1126.25" cy="1386.4" r="14.4" fill="#e26f46" fill-rule="evenodd" fill-opacity="1" stroke="#000000" stroke-opacity="1" stroke-width="3.2"></circle>
<circle clip-path="url(#clip172)" cx="1165.19" cy="1386.4" r="14.4" fill="#e26f46" fill-rule="evenodd" fill-opacity="1" stroke="#000000" stroke-opacity="1" stroke-width="3.2"></circle>
<circle clip-path="url(#clip172)" cx="1204.13" cy="1386.4" r="14.4" fill="#e26f46" fill-rule="evenodd" fill-opacity="1" stroke="#000000" stroke-opacity="1" stroke-width="3.2"></circle>
<circle clip-path="url(#clip172)" cx="1243.06" cy="1386.4" r="14.4" fill="#e26f46" fill-rule="evenodd" fill-opacity="1" stroke="#000000" stroke-opacity="1" stroke-width="3.2"></circle>
<circle clip-path="url(#clip172)" cx="1282" cy="1386.4" r="14.4" fill="#e26f46" fill-rule="evenodd" fill-opacity="1" stroke="#000000" stroke-opacity="1" stroke-width="3.2"></circle>
<circle clip-path="url(#clip172)" cx="1320.94" cy="1386.4" r="14.4" fill="#e26f46" fill-rule="evenodd" fill-opacity="1" stroke="#000000" stroke-opacity="1" stroke-width="3.2"></circle>
<circle clip-path="url(#clip172)" cx="1359.87" cy="1386.4" r="14.4" fill="#e26f46" fill-rule="evenodd" fill-opacity="1" stroke="#000000" stroke-opacity="1" stroke-width="3.2"></circle>
<circle clip-path="url(#clip172)" cx="1398.81" cy="1386.4" r="14.4" fill="#e26f46" fill-rule="evenodd" fill-opacity="1" stroke="#000000" stroke-opacity="1" stroke-width="3.2"></circle>
<circle clip-path="url(#clip172)" cx="1437.75" cy="1386.4" r="14.4" fill="#e26f46" fill-rule="evenodd" fill-opacity="1" stroke="#000000" stroke-opacity="1" stroke-width="3.2"></circle>
<circle clip-path="url(#clip172)" cx="1476.68" cy="1386.4" r="14.4" fill="#e26f46" fill-rule="evenodd" fill-opacity="1" stroke="#000000" stroke-opacity="1" stroke-width="3.2"></circle>
<circle clip-path="url(#clip172)" cx="1515.62" cy="1386.4" r="14.4" fill="#e26f46" fill-rule="evenodd" fill-opacity="1" stroke="#000000" stroke-opacity="1" stroke-width="3.2"></circle>
<circle clip-path="url(#clip172)" cx="1554.56" cy="1386.4" r="14.4" fill="#e26f46" fill-rule="evenodd" fill-opacity="1" stroke="#000000" stroke-opacity="1" stroke-width="3.2"></circle>
<circle clip-path="url(#clip172)" cx="1593.49" cy="1385.41" r="14.4" fill="#e26f46" fill-rule="evenodd" fill-opacity="1" stroke="#000000" stroke-opacity="1" stroke-width="3.2"></circle>
<circle clip-path="url(#clip172)" cx="1632.43" cy="1377.93" r="14.4" fill="#e26f46" fill-rule="evenodd" fill-opacity="1" stroke="#000000" stroke-opacity="1" stroke-width="3.2"></circle>
<circle clip-path="url(#clip172)" cx="1671.37" cy="1370.45" r="14.4" fill="#e26f46" fill-rule="evenodd" fill-opacity="1" stroke="#000000" stroke-opacity="1" stroke-width="3.2"></circle>
<circle clip-path="url(#clip172)" cx="1710.3" cy="1362.97" r="14.4" fill="#e26f46" fill-rule="evenodd" fill-opacity="1" stroke="#000000" stroke-opacity="1" stroke-width="3.2"></circle>
<circle clip-path="url(#clip172)" cx="1749.24" cy="1355.49" r="14.4" fill="#e26f46" fill-rule="evenodd" fill-opacity="1" stroke="#000000" stroke-opacity="1" stroke-width="3.2"></circle>
<circle clip-path="url(#clip172)" cx="1788.18" cy="1345.11" r="14.4" fill="#e26f46" fill-rule="evenodd" fill-opacity="1" stroke="#000000" stroke-opacity="1" stroke-width="3.2"></circle>
<circle clip-path="url(#clip172)" cx="1827.11" cy="1333.54" r="14.4" fill="#e26f46" fill-rule="evenodd" fill-opacity="1" stroke="#000000" stroke-opacity="1" stroke-width="3.2"></circle>
<circle clip-path="url(#clip172)" cx="1866.05" cy="1321.94" r="14.4" fill="#e26f46" fill-rule="evenodd" fill-opacity="1" stroke="#000000" stroke-opacity="1" stroke-width="3.2"></circle>
<circle clip-path="url(#clip172)" cx="1904.99" cy="1310.06" r="14.4" fill="#e26f46" fill-rule="evenodd" fill-opacity="1" stroke="#000000" stroke-opacity="1" stroke-width="3.2"></circle>
<circle clip-path="url(#clip172)" cx="1943.92" cy="1295.1" r="14.4" fill="#e26f46" fill-rule="evenodd" fill-opacity="1" stroke="#000000" stroke-opacity="1" stroke-width="3.2"></circle>
<circle clip-path="url(#clip172)" cx="1982.86" cy="1275.35" r="14.4" fill="#e26f46" fill-rule="evenodd" fill-opacity="1" stroke="#000000" stroke-opacity="1" stroke-width="3.2"></circle>
<circle clip-path="url(#clip172)" cx="2021.8" cy="1253.98" r="14.4" fill="#e26f46" fill-rule="evenodd" fill-opacity="1" stroke="#000000" stroke-opacity="1" stroke-width="3.2"></circle>
<circle clip-path="url(#clip172)" cx="2060.73" cy="1232.61" r="14.4" fill="#e26f46" fill-rule="evenodd" fill-opacity="1" stroke="#000000" stroke-opacity="1" stroke-width="3.2"></circle>
<circle clip-path="url(#clip172)" cx="2099.67" cy="1211.24" r="14.4" fill="#e26f46" fill-rule="evenodd" fill-opacity="1" stroke="#000000" stroke-opacity="1" stroke-width="3.2"></circle>
<circle clip-path="url(#clip172)" cx="2138.6" cy="1189.87" r="14.4" fill="#e26f46" fill-rule="evenodd" fill-opacity="1" stroke="#000000" stroke-opacity="1" stroke-width="3.2"></circle>
<circle clip-path="url(#clip172)" cx="2177.54" cy="1166.37" r="14.4" fill="#e26f46" fill-rule="evenodd" fill-opacity="1" stroke="#000000" stroke-opacity="1" stroke-width="3.2"></circle>
<circle clip-path="url(#clip172)" cx="2216.48" cy="1142.14" r="14.4" fill="#e26f46" fill-rule="evenodd" fill-opacity="1" stroke="#000000" stroke-opacity="1" stroke-width="3.2"></circle>
<circle clip-path="url(#clip172)" cx="2255.41" cy="1117.92" r="14.4" fill="#e26f46" fill-rule="evenodd" fill-opacity="1" stroke="#000000" stroke-opacity="1" stroke-width="3.2"></circle>
<circle clip-path="url(#clip172)" cx="2294.35" cy="1093.7" r="14.4" fill="#e26f46" fill-rule="evenodd" fill-opacity="1" stroke="#000000" stroke-opacity="1" stroke-width="3.2"></circle>
<circle clip-path="url(#clip172)" cx="347.524" cy="1157.29" r="14.4" fill="#3da44d" fill-rule="evenodd" fill-opacity="1" stroke="#000000" stroke-opacity="1" stroke-width="3.2"></circle>
<circle clip-path="url(#clip172)" cx="386.461" cy="1137.35" r="14.4" fill="#3da44d" fill-rule="evenodd" fill-opacity="1" stroke="#000000" stroke-opacity="1" stroke-width="3.2"></circle>
<circle clip-path="url(#clip172)" cx="425.397" cy="1117.41" r="14.4" fill="#3da44d" fill-rule="evenodd" fill-opacity="1" stroke="#000000" stroke-opacity="1" stroke-width="3.2"></circle>
<circle clip-path="url(#clip172)" cx="464.334" cy="1097.47" r="14.4" fill="#3da44d" fill-rule="evenodd" fill-opacity="1" stroke="#000000" stroke-opacity="1" stroke-width="3.2"></circle>
<circle clip-path="url(#clip172)" cx="503.27" cy="1077.53" r="14.4" fill="#3da44d" fill-rule="evenodd" fill-opacity="1" stroke="#000000" stroke-opacity="1" stroke-width="3.2"></circle>
<circle clip-path="url(#clip172)" cx="542.207" cy="1057.59" r="14.4" fill="#3da44d" fill-rule="evenodd" fill-opacity="1" stroke="#000000" stroke-opacity="1" stroke-width="3.2"></circle>
<circle clip-path="url(#clip172)" cx="581.143" cy="1037.65" r="14.4" fill="#3da44d" fill-rule="evenodd" fill-opacity="1" stroke="#000000" stroke-opacity="1" stroke-width="3.2"></circle>
<circle clip-path="url(#clip172)" cx="620.08" cy="1017.71" r="14.4" fill="#3da44d" fill-rule="evenodd" fill-opacity="1" stroke="#000000" stroke-opacity="1" stroke-width="3.2"></circle>
<circle clip-path="url(#clip172)" cx="659.016" cy="997.765" r="14.4" fill="#3da44d" fill-rule="evenodd" fill-opacity="1" stroke="#000000" stroke-opacity="1" stroke-width="3.2"></circle>
<circle clip-path="url(#clip172)" cx="697.953" cy="977.825" r="14.4" fill="#3da44d" fill-rule="evenodd" fill-opacity="1" stroke="#000000" stroke-opacity="1" stroke-width="3.2"></circle>
<circle clip-path="url(#clip172)" cx="736.89" cy="957.884" r="14.4" fill="#3da44d" fill-rule="evenodd" fill-opacity="1" stroke="#000000" stroke-opacity="1" stroke-width="3.2"></circle>
<circle clip-path="url(#clip172)" cx="775.826" cy="937.943" r="14.4" fill="#3da44d" fill-rule="evenodd" fill-opacity="1" stroke="#000000" stroke-opacity="1" stroke-width="3.2"></circle>
<circle clip-path="url(#clip172)" cx="814.763" cy="918.003" r="14.4" fill="#3da44d" fill-rule="evenodd" fill-opacity="1" stroke="#000000" stroke-opacity="1" stroke-width="3.2"></circle>
<circle clip-path="url(#clip172)" cx="853.699" cy="898.062" r="14.4" fill="#3da44d" fill-rule="evenodd" fill-opacity="1" stroke="#000000" stroke-opacity="1" stroke-width="3.2"></circle>
<circle clip-path="url(#clip172)" cx="892.636" cy="878.121" r="14.4" fill="#3da44d" fill-rule="evenodd" fill-opacity="1" stroke="#000000" stroke-opacity="1" stroke-width="3.2"></circle>
<circle clip-path="url(#clip172)" cx="931.572" cy="858.181" r="14.4" fill="#3da44d" fill-rule="evenodd" fill-opacity="1" stroke="#000000" stroke-opacity="1" stroke-width="3.2"></circle>
<circle clip-path="url(#clip172)" cx="970.509" cy="838.24" r="14.4" fill="#3da44d" fill-rule="evenodd" fill-opacity="1" stroke="#000000" stroke-opacity="1" stroke-width="3.2"></circle>
<circle clip-path="url(#clip172)" cx="1009.45" cy="818.299" r="14.4" fill="#3da44d" fill-rule="evenodd" fill-opacity="1" stroke="#000000" stroke-opacity="1" stroke-width="3.2"></circle>
<circle clip-path="url(#clip172)" cx="1048.38" cy="798.358" r="14.4" fill="#3da44d" fill-rule="evenodd" fill-opacity="1" stroke="#000000" stroke-opacity="1" stroke-width="3.2"></circle>
<circle clip-path="url(#clip172)" cx="1087.32" cy="778.418" r="14.4" fill="#3da44d" fill-rule="evenodd" fill-opacity="1" stroke="#000000" stroke-opacity="1" stroke-width="3.2"></circle>
<circle clip-path="url(#clip172)" cx="1126.25" cy="758.477" r="14.4" fill="#3da44d" fill-rule="evenodd" fill-opacity="1" stroke="#000000" stroke-opacity="1" stroke-width="3.2"></circle>
<circle clip-path="url(#clip172)" cx="1165.19" cy="738.536" r="14.4" fill="#3da44d" fill-rule="evenodd" fill-opacity="1" stroke="#000000" stroke-opacity="1" stroke-width="3.2"></circle>
<circle clip-path="url(#clip172)" cx="1204.13" cy="718.596" r="14.4" fill="#3da44d" fill-rule="evenodd" fill-opacity="1" stroke="#000000" stroke-opacity="1" stroke-width="3.2"></circle>
<circle clip-path="url(#clip172)" cx="1243.06" cy="698.655" r="14.4" fill="#3da44d" fill-rule="evenodd" fill-opacity="1" stroke="#000000" stroke-opacity="1" stroke-width="3.2"></circle>
<circle clip-path="url(#clip172)" cx="1282" cy="678.714" r="14.4" fill="#3da44d" fill-rule="evenodd" fill-opacity="1" stroke="#000000" stroke-opacity="1" stroke-width="3.2"></circle>
<circle clip-path="url(#clip172)" cx="1320.94" cy="658.774" r="14.4" fill="#3da44d" fill-rule="evenodd" fill-opacity="1" stroke="#000000" stroke-opacity="1" stroke-width="3.2"></circle>
<circle clip-path="url(#clip172)" cx="1359.87" cy="638.833" r="14.4" fill="#3da44d" fill-rule="evenodd" fill-opacity="1" stroke="#000000" stroke-opacity="1" stroke-width="3.2"></circle>
<circle clip-path="url(#clip172)" cx="1398.81" cy="618.892" r="14.4" fill="#3da44d" fill-rule="evenodd" fill-opacity="1" stroke="#000000" stroke-opacity="1" stroke-width="3.2"></circle>
<circle clip-path="url(#clip172)" cx="1437.75" cy="598.952" r="14.4" fill="#3da44d" fill-rule="evenodd" fill-opacity="1" stroke="#000000" stroke-opacity="1" stroke-width="3.2"></circle>
<circle clip-path="url(#clip172)" cx="1476.68" cy="579.011" r="14.4" fill="#3da44d" fill-rule="evenodd" fill-opacity="1" stroke="#000000" stroke-opacity="1" stroke-width="3.2"></circle>
<circle clip-path="url(#clip172)" cx="1515.62" cy="559.07" r="14.4" fill="#3da44d" fill-rule="evenodd" fill-opacity="1" stroke="#000000" stroke-opacity="1" stroke-width="3.2"></circle>
<circle clip-path="url(#clip172)" cx="1554.56" cy="539.129" r="14.4" fill="#3da44d" fill-rule="evenodd" fill-opacity="1" stroke="#000000" stroke-opacity="1" stroke-width="3.2"></circle>
<circle clip-path="url(#clip172)" cx="1593.49" cy="519.189" r="14.4" fill="#3da44d" fill-rule="evenodd" fill-opacity="1" stroke="#000000" stroke-opacity="1" stroke-width="3.2"></circle>
<circle clip-path="url(#clip172)" cx="1632.43" cy="499.248" r="14.4" fill="#3da44d" fill-rule="evenodd" fill-opacity="1" stroke="#000000" stroke-opacity="1" stroke-width="3.2"></circle>
<circle clip-path="url(#clip172)" cx="1671.37" cy="479.307" r="14.4" fill="#3da44d" fill-rule="evenodd" fill-opacity="1" stroke="#000000" stroke-opacity="1" stroke-width="3.2"></circle>
<circle clip-path="url(#clip172)" cx="1710.3" cy="459.367" r="14.4" fill="#3da44d" fill-rule="evenodd" fill-opacity="1" stroke="#000000" stroke-opacity="1" stroke-width="3.2"></circle>
<circle clip-path="url(#clip172)" cx="1749.24" cy="439.426" r="14.4" fill="#3da44d" fill-rule="evenodd" fill-opacity="1" stroke="#000000" stroke-opacity="1" stroke-width="3.2"></circle>
<circle clip-path="url(#clip172)" cx="1788.18" cy="419.485" r="14.4" fill="#3da44d" fill-rule="evenodd" fill-opacity="1" stroke="#000000" stroke-opacity="1" stroke-width="3.2"></circle>
<circle clip-path="url(#clip172)" cx="1827.11" cy="399.545" r="14.4" fill="#3da44d" fill-rule="evenodd" fill-opacity="1" stroke="#000000" stroke-opacity="1" stroke-width="3.2"></circle>
<circle clip-path="url(#clip172)" cx="1866.05" cy="379.604" r="14.4" fill="#3da44d" fill-rule="evenodd" fill-opacity="1" stroke="#000000" stroke-opacity="1" stroke-width="3.2"></circle>
<circle clip-path="url(#clip172)" cx="1904.99" cy="359.663" r="14.4" fill="#3da44d" fill-rule="evenodd" fill-opacity="1" stroke="#000000" stroke-opacity="1" stroke-width="3.2"></circle>
<circle clip-path="url(#clip172)" cx="1943.92" cy="339.723" r="14.4" fill="#3da44d" fill-rule="evenodd" fill-opacity="1" stroke="#000000" stroke-opacity="1" stroke-width="3.2"></circle>
<circle clip-path="url(#clip172)" cx="1982.86" cy="319.782" r="14.4" fill="#3da44d" fill-rule="evenodd" fill-opacity="1" stroke="#000000" stroke-opacity="1" stroke-width="3.2"></circle>
<circle clip-path="url(#clip172)" cx="2021.8" cy="299.841" r="14.4" fill="#3da44d" fill-rule="evenodd" fill-opacity="1" stroke="#000000" stroke-opacity="1" stroke-width="3.2"></circle>
<circle clip-path="url(#clip172)" cx="2060.73" cy="279.9" r="14.4" fill="#3da44d" fill-rule="evenodd" fill-opacity="1" stroke="#000000" stroke-opacity="1" stroke-width="3.2"></circle>
<circle clip-path="url(#clip172)" cx="2099.67" cy="259.96" r="14.4" fill="#3da44d" fill-rule="evenodd" fill-opacity="1" stroke="#000000" stroke-opacity="1" stroke-width="3.2"></circle>
<circle clip-path="url(#clip172)" cx="2138.6" cy="240.019" r="14.4" fill="#3da44d" fill-rule="evenodd" fill-opacity="1" stroke="#000000" stroke-opacity="1" stroke-width="3.2"></circle>
<circle clip-path="url(#clip172)" cx="2177.54" cy="220.078" r="14.4" fill="#3da44d" fill-rule="evenodd" fill-opacity="1" stroke="#000000" stroke-opacity="1" stroke-width="3.2"></circle>
<circle clip-path="url(#clip172)" cx="2216.48" cy="200.138" r="14.4" fill="#3da44d" fill-rule="evenodd" fill-opacity="1" stroke="#000000" stroke-opacity="1" stroke-width="3.2"></circle>
<circle clip-path="url(#clip172)" cx="2255.41" cy="180.197" r="14.4" fill="#3da44d" fill-rule="evenodd" fill-opacity="1" stroke="#000000" stroke-opacity="1" stroke-width="3.2"></circle>
<circle clip-path="url(#clip172)" cx="2294.35" cy="160.256" r="14.4" fill="#3da44d" fill-rule="evenodd" fill-opacity="1" stroke="#000000" stroke-opacity="1" stroke-width="3.2"></circle>
<path clip-path="url(#clip170)" d="M357.907 374.156 L945.311 374.156 L945.311 166.796 L357.907 166.796  Z" fill="#ffffff" fill-rule="evenodd" fill-opacity="1"></path>
<polyline clip-path="url(#clip170)" style="stroke:#000000; stroke-linecap:round; stroke-linejoin:round; stroke-width:4; stroke-opacity:1; fill:none" points="357.907,374.156 945.311,374.156 945.311,166.796 357.907,166.796 357.907,374.156 "></polyline>
<circle clip-path="url(#clip170)" cx="449.624" cy="218.636" r="20.48" fill="#009af9" fill-rule="evenodd" fill-opacity="1" stroke="#000000" stroke-opacity="1" stroke-width="4.55111"></circle>
<path clip-path="url(#clip170)" d="M556.527 213.971 Q555.809 213.555 554.953 213.37 Q554.119 213.161 553.101 213.161 Q549.49 213.161 547.545 215.522 Q545.624 217.86 545.624 222.258 L545.624 235.916 L541.342 235.916 L541.342 209.99 L545.624 209.99 L545.624 214.018 Q546.967 211.657 549.119 210.522 Q551.272 209.365 554.351 209.365 Q554.791 209.365 555.323 209.434 Q555.855 209.481 556.504 209.596 L556.527 213.971 Z" fill="#000000" fill-rule="nonzero" fill-opacity="1"></path><path clip-path="url(#clip170)" d="M572.777 222.883 Q567.615 222.883 565.624 224.064 Q563.633 225.244 563.633 228.092 Q563.633 230.36 565.115 231.703 Q566.619 233.022 569.189 233.022 Q572.73 233.022 574.86 230.522 Q577.013 227.999 577.013 223.832 L577.013 222.883 L572.777 222.883 M581.272 221.124 L581.272 235.916 L577.013 235.916 L577.013 231.981 Q575.554 234.342 573.378 235.476 Q571.203 236.587 568.054 236.587 Q564.073 236.587 561.712 234.365 Q559.374 232.119 559.374 228.369 Q559.374 223.994 562.291 221.772 Q565.23 219.55 571.041 219.55 L577.013 219.55 L577.013 219.133 Q577.013 216.194 575.068 214.596 Q573.147 212.976 569.652 212.976 Q567.429 212.976 565.323 213.508 Q563.216 214.041 561.272 215.106 L561.272 211.17 Q563.61 210.268 565.809 209.828 Q568.008 209.365 570.091 209.365 Q575.716 209.365 578.494 212.282 Q581.272 215.198 581.272 221.124 Z" fill="#000000" fill-rule="nonzero" fill-opacity="1"></path><path clip-path="url(#clip170)" d="M611.596 220.268 L611.596 235.916 L607.337 235.916 L607.337 220.407 Q607.337 216.726 605.901 214.897 Q604.466 213.069 601.596 213.069 Q598.147 213.069 596.156 215.268 Q594.165 217.467 594.165 221.263 L594.165 235.916 L589.883 235.916 L589.883 209.99 L594.165 209.99 L594.165 214.018 Q595.693 211.68 597.753 210.522 Q599.837 209.365 602.545 209.365 Q607.013 209.365 609.304 212.143 Q611.596 214.897 611.596 220.268 Z" fill="#000000" fill-rule="nonzero" fill-opacity="1"></path><path clip-path="url(#clip170)" d="M637.151 213.925 L637.151 199.897 L641.411 199.897 L641.411 235.916 L637.151 235.916 L637.151 232.027 Q635.809 234.342 633.749 235.476 Q631.711 236.587 628.841 236.587 Q624.142 236.587 621.179 232.837 Q618.239 229.087 618.239 222.976 Q618.239 216.865 621.179 213.115 Q624.142 209.365 628.841 209.365 Q631.711 209.365 633.749 210.499 Q635.809 211.61 637.151 213.925 M622.637 222.976 Q622.637 227.675 624.559 230.36 Q626.503 233.022 629.883 233.022 Q633.262 233.022 635.207 230.36 Q637.151 227.675 637.151 222.976 Q637.151 218.277 635.207 215.615 Q633.262 212.93 629.883 212.93 Q626.503 212.93 624.559 215.615 Q622.637 218.277 622.637 222.976 Z" fill="#000000" fill-rule="nonzero" fill-opacity="1"></path><path clip-path="url(#clip170)" d="M660.23 212.976 Q656.804 212.976 654.813 215.661 Q652.822 218.323 652.822 222.976 Q652.822 227.629 654.79 230.314 Q656.781 232.976 660.23 232.976 Q663.633 232.976 665.623 230.291 Q667.614 227.606 667.614 222.976 Q667.614 218.37 665.623 215.684 Q663.633 212.976 660.23 212.976 M660.23 209.365 Q665.785 209.365 668.957 212.976 Q672.128 216.587 672.128 222.976 Q672.128 229.342 668.957 232.976 Q665.785 236.587 660.23 236.587 Q654.651 236.587 651.48 232.976 Q648.332 229.342 648.332 222.976 Q648.332 216.587 651.48 212.976 Q654.651 209.365 660.23 209.365 Z" fill="#000000" fill-rule="nonzero" fill-opacity="1"></path><path clip-path="url(#clip170)" d="M699.373 214.967 Q700.97 212.096 703.193 210.731 Q705.415 209.365 708.424 209.365 Q712.475 209.365 714.674 212.212 Q716.873 215.036 716.873 220.268 L716.873 235.916 L712.591 235.916 L712.591 220.407 Q712.591 216.68 711.271 214.874 Q709.952 213.069 707.243 213.069 Q703.933 213.069 702.012 215.268 Q700.091 217.467 700.091 221.263 L700.091 235.916 L695.808 235.916 L695.808 220.407 Q695.808 216.657 694.489 214.874 Q693.17 213.069 690.415 213.069 Q687.151 213.069 685.23 215.291 Q683.308 217.49 683.308 221.263 L683.308 235.916 L679.026 235.916 L679.026 209.99 L683.308 209.99 L683.308 214.018 Q684.767 211.633 686.804 210.499 Q688.841 209.365 691.642 209.365 Q694.466 209.365 696.433 210.8 Q698.424 212.235 699.373 214.967 Z" fill="#000000" fill-rule="nonzero" fill-opacity="1"></path><path clip-path="url(#clip170)" d="M759.095 210.985 L759.095 214.967 Q757.29 213.971 755.461 213.485 Q753.655 212.976 751.803 212.976 Q747.66 212.976 745.368 215.615 Q743.077 218.231 743.077 222.976 Q743.077 227.721 745.368 230.36 Q747.66 232.976 751.803 232.976 Q753.655 232.976 755.461 232.49 Q757.29 231.981 759.095 230.985 L759.095 234.92 Q757.313 235.754 755.391 236.17 Q753.493 236.587 751.34 236.587 Q745.484 236.587 742.035 232.906 Q738.586 229.226 738.586 222.976 Q738.586 216.633 742.058 212.999 Q745.553 209.365 751.618 209.365 Q753.586 209.365 755.461 209.782 Q757.336 210.175 759.095 210.985 Z" fill="#000000" fill-rule="nonzero" fill-opacity="1"></path><path clip-path="url(#clip170)" d="M766.502 209.99 L770.762 209.99 L770.762 235.916 L766.502 235.916 L766.502 209.99 M766.502 199.897 L770.762 199.897 L770.762 205.291 L766.502 205.291 L766.502 199.897 Z" fill="#000000" fill-rule="nonzero" fill-opacity="1"></path><path clip-path="url(#clip170)" d="M794.697 213.971 Q793.979 213.555 793.123 213.37 Q792.289 213.161 791.271 213.161 Q787.66 213.161 785.715 215.522 Q783.794 217.86 783.794 222.258 L783.794 235.916 L779.512 235.916 L779.512 209.99 L783.794 209.99 L783.794 214.018 Q785.137 211.657 787.289 210.522 Q789.442 209.365 792.521 209.365 Q792.961 209.365 793.493 209.434 Q794.025 209.481 794.674 209.596 L794.697 213.971 Z" fill="#000000" fill-rule="nonzero" fill-opacity="1"></path><path clip-path="url(#clip170)" d="M816.78 210.985 L816.78 214.967 Q814.974 213.971 813.146 213.485 Q811.34 212.976 809.488 212.976 Q805.345 212.976 803.053 215.615 Q800.762 218.231 800.762 222.976 Q800.762 227.721 803.053 230.36 Q805.345 232.976 809.488 232.976 Q811.34 232.976 813.146 232.49 Q814.974 231.981 816.78 230.985 L816.78 234.92 Q814.998 235.754 813.076 236.17 Q811.178 236.587 809.025 236.587 Q803.169 236.587 799.72 232.906 Q796.271 229.226 796.271 222.976 Q796.271 216.633 799.743 212.999 Q803.238 209.365 809.303 209.365 Q811.271 209.365 813.146 209.782 Q815.021 210.175 816.78 210.985 Z" fill="#000000" fill-rule="nonzero" fill-opacity="1"></path><path clip-path="url(#clip170)" d="M823.748 225.684 L823.748 209.99 L828.007 209.99 L828.007 225.522 Q828.007 229.203 829.442 231.055 Q830.877 232.883 833.747 232.883 Q837.197 232.883 839.187 230.684 Q841.201 228.485 841.201 224.689 L841.201 209.99 L845.46 209.99 L845.46 235.916 L841.201 235.916 L841.201 231.934 Q839.65 234.295 837.59 235.453 Q835.553 236.587 832.845 236.587 Q828.377 236.587 826.062 233.809 Q823.748 231.031 823.748 225.684 M834.465 209.365 L834.465 209.365 Z" fill="#000000" fill-rule="nonzero" fill-opacity="1"></path><path clip-path="url(#clip170)" d="M854.233 209.99 L858.493 209.99 L858.493 235.916 L854.233 235.916 L854.233 209.99 M854.233 199.897 L858.493 199.897 L858.493 205.291 L854.233 205.291 L854.233 199.897 Z" fill="#000000" fill-rule="nonzero" fill-opacity="1"></path><path clip-path="url(#clip170)" d="M871.618 202.629 L871.618 209.99 L880.391 209.99 L880.391 213.3 L871.618 213.3 L871.618 227.374 Q871.618 230.545 872.474 231.448 Q873.354 232.351 876.016 232.351 L880.391 232.351 L880.391 235.916 L876.016 235.916 Q871.085 235.916 869.21 234.087 Q867.335 232.235 867.335 227.374 L867.335 213.3 L864.21 213.3 L864.21 209.99 L867.335 209.99 L867.335 202.629 L871.618 202.629 Z" fill="#000000" fill-rule="nonzero" fill-opacity="1"></path><path clip-path="url(#clip170)" d="M902.474 231.981 L910.113 231.981 L910.113 205.615 L901.803 207.282 L901.803 203.022 L910.066 201.356 L914.742 201.356 L914.742 231.981 L922.381 231.981 L922.381 235.916 L902.474 235.916 L902.474 231.981 Z" fill="#000000" fill-rule="nonzero" fill-opacity="1"></path><circle clip-path="url(#clip170)" cx="449.624" cy="270.476" r="20.48" fill="#e26f46" fill-rule="evenodd" fill-opacity="1" stroke="#000000" stroke-opacity="1" stroke-width="4.55111"></circle>
<path clip-path="url(#clip170)" d="M556.527 265.811 Q555.809 265.395 554.953 265.21 Q554.119 265.001 553.101 265.001 Q549.49 265.001 547.545 267.362 Q545.624 269.7 545.624 274.098 L545.624 287.756 L541.342 287.756 L541.342 261.83 L545.624 261.83 L545.624 265.858 Q546.967 263.497 549.119 262.362 Q551.272 261.205 554.351 261.205 Q554.791 261.205 555.323 261.274 Q555.855 261.321 556.504 261.436 L556.527 265.811 Z" fill="#000000" fill-rule="nonzero" fill-opacity="1"></path><path clip-path="url(#clip170)" d="M572.777 274.723 Q567.615 274.723 565.624 275.904 Q563.633 277.084 563.633 279.932 Q563.633 282.2 565.115 283.543 Q566.619 284.862 569.189 284.862 Q572.73 284.862 574.86 282.362 Q577.013 279.839 577.013 275.672 L577.013 274.723 L572.777 274.723 M581.272 272.964 L581.272 287.756 L577.013 287.756 L577.013 283.821 Q575.554 286.182 573.378 287.316 Q571.203 288.427 568.054 288.427 Q564.073 288.427 561.712 286.205 Q559.374 283.959 559.374 280.209 Q559.374 275.834 562.291 273.612 Q565.23 271.39 571.041 271.39 L577.013 271.39 L577.013 270.973 Q577.013 268.034 575.068 266.436 Q573.147 264.816 569.652 264.816 Q567.429 264.816 565.323 265.348 Q563.216 265.881 561.272 266.946 L561.272 263.01 Q563.61 262.108 565.809 261.668 Q568.008 261.205 570.091 261.205 Q575.716 261.205 578.494 264.122 Q581.272 267.038 581.272 272.964 Z" fill="#000000" fill-rule="nonzero" fill-opacity="1"></path><path clip-path="url(#clip170)" d="M611.596 272.108 L611.596 287.756 L607.337 287.756 L607.337 272.247 Q607.337 268.566 605.901 266.737 Q604.466 264.909 601.596 264.909 Q598.147 264.909 596.156 267.108 Q594.165 269.307 594.165 273.103 L594.165 287.756 L589.883 287.756 L589.883 261.83 L594.165 261.83 L594.165 265.858 Q595.693 263.52 597.753 262.362 Q599.837 261.205 602.545 261.205 Q607.013 261.205 609.304 263.983 Q611.596 266.737 611.596 272.108 Z" fill="#000000" fill-rule="nonzero" fill-opacity="1"></path><path clip-path="url(#clip170)" d="M637.151 265.765 L637.151 251.737 L641.411 251.737 L641.411 287.756 L637.151 287.756 L637.151 283.867 Q635.809 286.182 633.749 287.316 Q631.711 288.427 628.841 288.427 Q624.142 288.427 621.179 284.677 Q618.239 280.927 618.239 274.816 Q618.239 268.705 621.179 264.955 Q624.142 261.205 628.841 261.205 Q631.711 261.205 633.749 262.339 Q635.809 263.45 637.151 265.765 M622.637 274.816 Q622.637 279.515 624.559 282.2 Q626.503 284.862 629.883 284.862 Q633.262 284.862 635.207 282.2 Q637.151 279.515 637.151 274.816 Q637.151 270.117 635.207 267.455 Q633.262 264.77 629.883 264.77 Q626.503 264.77 624.559 267.455 Q622.637 270.117 622.637 274.816 Z" fill="#000000" fill-rule="nonzero" fill-opacity="1"></path><path clip-path="url(#clip170)" d="M660.23 264.816 Q656.804 264.816 654.813 267.501 Q652.822 270.163 652.822 274.816 Q652.822 279.469 654.79 282.154 Q656.781 284.816 660.23 284.816 Q663.633 284.816 665.623 282.131 Q667.614 279.446 667.614 274.816 Q667.614 270.21 665.623 267.524 Q663.633 264.816 660.23 264.816 M660.23 261.205 Q665.785 261.205 668.957 264.816 Q672.128 268.427 672.128 274.816 Q672.128 281.182 668.957 284.816 Q665.785 288.427 660.23 288.427 Q654.651 288.427 651.48 284.816 Q648.332 281.182 648.332 274.816 Q648.332 268.427 651.48 264.816 Q654.651 261.205 660.23 261.205 Z" fill="#000000" fill-rule="nonzero" fill-opacity="1"></path><path clip-path="url(#clip170)" d="M699.373 266.807 Q700.97 263.936 703.193 262.571 Q705.415 261.205 708.424 261.205 Q712.475 261.205 714.674 264.052 Q716.873 266.876 716.873 272.108 L716.873 287.756 L712.591 287.756 L712.591 272.247 Q712.591 268.52 711.271 266.714 Q709.952 264.909 707.243 264.909 Q703.933 264.909 702.012 267.108 Q700.091 269.307 700.091 273.103 L700.091 287.756 L695.808 287.756 L695.808 272.247 Q695.808 268.497 694.489 266.714 Q693.17 264.909 690.415 264.909 Q687.151 264.909 685.23 267.131 Q683.308 269.33 683.308 273.103 L683.308 287.756 L679.026 287.756 L679.026 261.83 L683.308 261.83 L683.308 265.858 Q684.767 263.473 686.804 262.339 Q688.841 261.205 691.642 261.205 Q694.466 261.205 696.433 262.64 Q698.424 264.075 699.373 266.807 Z" fill="#000000" fill-rule="nonzero" fill-opacity="1"></path><path clip-path="url(#clip170)" d="M759.095 262.825 L759.095 266.807 Q757.29 265.811 755.461 265.325 Q753.655 264.816 751.803 264.816 Q747.66 264.816 745.368 267.455 Q743.077 270.071 743.077 274.816 Q743.077 279.561 745.368 282.2 Q747.66 284.816 751.803 284.816 Q753.655 284.816 755.461 284.33 Q757.29 283.821 759.095 282.825 L759.095 286.76 Q757.313 287.594 755.391 288.01 Q753.493 288.427 751.34 288.427 Q745.484 288.427 742.035 284.746 Q738.586 281.066 738.586 274.816 Q738.586 268.473 742.058 264.839 Q745.553 261.205 751.618 261.205 Q753.586 261.205 755.461 261.622 Q757.336 262.015 759.095 262.825 Z" fill="#000000" fill-rule="nonzero" fill-opacity="1"></path><path clip-path="url(#clip170)" d="M766.502 261.83 L770.762 261.83 L770.762 287.756 L766.502 287.756 L766.502 261.83 M766.502 251.737 L770.762 251.737 L770.762 257.131 L766.502 257.131 L766.502 251.737 Z" fill="#000000" fill-rule="nonzero" fill-opacity="1"></path><path clip-path="url(#clip170)" d="M794.697 265.811 Q793.979 265.395 793.123 265.21 Q792.289 265.001 791.271 265.001 Q787.66 265.001 785.715 267.362 Q783.794 269.7 783.794 274.098 L783.794 287.756 L779.512 287.756 L779.512 261.83 L783.794 261.83 L783.794 265.858 Q785.137 263.497 787.289 262.362 Q789.442 261.205 792.521 261.205 Q792.961 261.205 793.493 261.274 Q794.025 261.321 794.674 261.436 L794.697 265.811 Z" fill="#000000" fill-rule="nonzero" fill-opacity="1"></path><path clip-path="url(#clip170)" d="M816.78 262.825 L816.78 266.807 Q814.974 265.811 813.146 265.325 Q811.34 264.816 809.488 264.816 Q805.345 264.816 803.053 267.455 Q800.762 270.071 800.762 274.816 Q800.762 279.561 803.053 282.2 Q805.345 284.816 809.488 284.816 Q811.34 284.816 813.146 284.33 Q814.974 283.821 816.78 282.825 L816.78 286.76 Q814.998 287.594 813.076 288.01 Q811.178 288.427 809.025 288.427 Q803.169 288.427 799.72 284.746 Q796.271 281.066 796.271 274.816 Q796.271 268.473 799.743 264.839 Q803.238 261.205 809.303 261.205 Q811.271 261.205 813.146 261.622 Q815.021 262.015 816.78 262.825 Z" fill="#000000" fill-rule="nonzero" fill-opacity="1"></path><path clip-path="url(#clip170)" d="M823.748 277.524 L823.748 261.83 L828.007 261.83 L828.007 277.362 Q828.007 281.043 829.442 282.895 Q830.877 284.723 833.747 284.723 Q837.197 284.723 839.187 282.524 Q841.201 280.325 841.201 276.529 L841.201 261.83 L845.46 261.83 L845.46 287.756 L841.201 287.756 L841.201 283.774 Q839.65 286.135 837.59 287.293 Q835.553 288.427 832.845 288.427 Q828.377 288.427 826.062 285.649 Q823.748 282.871 823.748 277.524 M834.465 261.205 L834.465 261.205 Z" fill="#000000" fill-rule="nonzero" fill-opacity="1"></path><path clip-path="url(#clip170)" d="M854.233 261.83 L858.493 261.83 L858.493 287.756 L854.233 287.756 L854.233 261.83 M854.233 251.737 L858.493 251.737 L858.493 257.131 L854.233 257.131 L854.233 251.737 Z" fill="#000000" fill-rule="nonzero" fill-opacity="1"></path><path clip-path="url(#clip170)" d="M871.618 254.469 L871.618 261.83 L880.391 261.83 L880.391 265.14 L871.618 265.14 L871.618 279.214 Q871.618 282.385 872.474 283.288 Q873.354 284.191 876.016 284.191 L880.391 284.191 L880.391 287.756 L876.016 287.756 Q871.085 287.756 869.21 285.927 Q867.335 284.075 867.335 279.214 L867.335 265.14 L864.21 265.14 L864.21 261.83 L867.335 261.83 L867.335 254.469 L871.618 254.469 Z" fill="#000000" fill-rule="nonzero" fill-opacity="1"></path><path clip-path="url(#clip170)" d="M905.692 283.821 L922.011 283.821 L922.011 287.756 L900.067 287.756 L900.067 283.821 Q902.729 281.066 907.312 276.436 Q911.918 271.784 913.099 270.441 Q915.344 267.918 916.224 266.182 Q917.127 264.423 917.127 262.733 Q917.127 259.978 915.182 258.242 Q913.261 256.506 910.159 256.506 Q907.96 256.506 905.506 257.27 Q903.076 258.034 900.298 259.585 L900.298 254.862 Q903.122 253.728 905.576 253.149 Q908.029 252.571 910.066 252.571 Q915.437 252.571 918.631 255.256 Q921.826 257.941 921.826 262.432 Q921.826 264.561 921.016 266.483 Q920.228 268.381 918.122 270.973 Q917.543 271.645 914.441 274.862 Q911.34 278.057 905.692 283.821 Z" fill="#000000" fill-rule="nonzero" fill-opacity="1"></path><circle clip-path="url(#clip170)" cx="449.624" cy="322.316" r="20.48" fill="#3da44d" fill-rule="evenodd" fill-opacity="1" stroke="#000000" stroke-opacity="1" stroke-width="4.55111"></circle>
<path clip-path="url(#clip170)" d="M541.342 305.036 L570.578 305.036 L570.578 308.971 L558.309 308.971 L558.309 339.596 L553.61 339.596 L553.61 308.971 L541.342 308.971 L541.342 305.036 Z" fill="#000000" fill-rule="nonzero" fill-opacity="1"></path><path clip-path="url(#clip170)" d="M568.402 324.712 L580.878 324.712 L580.878 328.508 L568.402 328.508 L568.402 324.712 Z" fill="#000000" fill-rule="nonzero" fill-opacity="1"></path><path clip-path="url(#clip170)" d="M587.661 303.577 L591.92 303.577 L591.92 339.596 L587.661 339.596 L587.661 303.577 Z" fill="#000000" fill-rule="nonzero" fill-opacity="1"></path><path clip-path="url(#clip170)" d="M612.614 326.563 Q607.452 326.563 605.462 327.744 Q603.471 328.924 603.471 331.772 Q603.471 334.04 604.952 335.383 Q606.457 336.702 609.026 336.702 Q612.568 336.702 614.698 334.202 Q616.85 331.679 616.85 327.512 L616.85 326.563 L612.614 326.563 M621.11 324.804 L621.11 339.596 L616.85 339.596 L616.85 335.661 Q615.392 338.022 613.216 339.156 Q611.04 340.267 607.892 340.267 Q603.911 340.267 601.55 338.045 Q599.212 335.799 599.212 332.049 Q599.212 327.674 602.128 325.452 Q605.068 323.23 610.878 323.23 L616.85 323.23 L616.85 322.813 Q616.85 319.874 614.906 318.276 Q612.985 316.656 609.489 316.656 Q607.267 316.656 605.161 317.188 Q603.054 317.721 601.11 318.786 L601.11 314.85 Q603.448 313.948 605.647 313.508 Q607.846 313.045 609.929 313.045 Q615.554 313.045 618.332 315.962 Q621.11 318.878 621.11 324.804 Z" fill="#000000" fill-rule="nonzero" fill-opacity="1"></path><path clip-path="url(#clip170)" d="M640.67 342.003 Q638.864 346.633 637.151 348.045 Q635.438 349.457 632.568 349.457 L629.165 349.457 L629.165 345.892 L631.665 345.892 Q633.424 345.892 634.397 345.059 Q635.369 344.225 636.549 341.123 L637.313 339.179 L626.827 313.67 L631.341 313.67 L639.443 333.948 L647.545 313.67 L652.059 313.67 L640.67 342.003 Z" fill="#000000" fill-rule="nonzero" fill-opacity="1"></path><path clip-path="url(#clip170)" d="M680.114 325.568 L680.114 327.651 L660.531 327.651 Q660.809 332.049 663.17 334.364 Q665.554 336.656 669.79 336.656 Q672.244 336.656 674.535 336.054 Q676.85 335.452 679.119 334.249 L679.119 338.276 Q676.827 339.248 674.42 339.758 Q672.012 340.267 669.535 340.267 Q663.332 340.267 659.697 336.656 Q656.086 333.045 656.086 326.887 Q656.086 320.522 659.512 316.795 Q662.961 313.045 668.795 313.045 Q674.026 313.045 677.058 316.425 Q680.114 319.781 680.114 325.568 M675.855 324.318 Q675.808 320.823 673.887 318.739 Q671.989 316.656 668.841 316.656 Q665.276 316.656 663.123 318.67 Q660.994 320.684 660.67 324.341 L675.855 324.318 Z" fill="#000000" fill-rule="nonzero" fill-opacity="1"></path><path clip-path="url(#clip170)" d="M702.128 317.651 Q701.41 317.235 700.554 317.05 Q699.72 316.841 698.702 316.841 Q695.091 316.841 693.146 319.202 Q691.225 321.54 691.225 325.938 L691.225 339.596 L686.943 339.596 L686.943 313.67 L691.225 313.67 L691.225 317.698 Q692.568 315.337 694.72 314.202 Q696.873 313.045 699.952 313.045 Q700.392 313.045 700.924 313.114 Q701.456 313.161 702.105 313.276 L702.128 317.651 Z" fill="#000000" fill-rule="nonzero" fill-opacity="1"></path><path clip-path="url(#clip170)" d="M740.322 314.665 L740.322 318.647 Q738.516 317.651 736.688 317.165 Q734.882 316.656 733.03 316.656 Q728.887 316.656 726.595 319.295 Q724.304 321.911 724.304 326.656 Q724.304 331.401 726.595 334.04 Q728.887 336.656 733.03 336.656 Q734.882 336.656 736.688 336.17 Q738.516 335.661 740.322 334.665 L740.322 338.6 Q738.54 339.434 736.618 339.85 Q734.72 340.267 732.567 340.267 Q726.711 340.267 723.262 336.586 Q719.813 332.906 719.813 326.656 Q719.813 320.313 723.285 316.679 Q726.78 313.045 732.845 313.045 Q734.813 313.045 736.688 313.462 Q738.563 313.855 740.322 314.665 Z" fill="#000000" fill-rule="nonzero" fill-opacity="1"></path><path clip-path="url(#clip170)" d="M747.729 313.67 L751.989 313.67 L751.989 339.596 L747.729 339.596 L747.729 313.67 M747.729 303.577 L751.989 303.577 L751.989 308.971 L747.729 308.971 L747.729 303.577 Z" fill="#000000" fill-rule="nonzero" fill-opacity="1"></path><path clip-path="url(#clip170)" d="M775.924 317.651 Q775.206 317.235 774.35 317.05 Q773.516 316.841 772.498 316.841 Q768.887 316.841 766.942 319.202 Q765.021 321.54 765.021 325.938 L765.021 339.596 L760.739 339.596 L760.739 313.67 L765.021 313.67 L765.021 317.698 Q766.364 315.337 768.516 314.202 Q770.669 313.045 773.748 313.045 Q774.188 313.045 774.72 313.114 Q775.252 313.161 775.901 313.276 L775.924 317.651 Z" fill="#000000" fill-rule="nonzero" fill-opacity="1"></path><path clip-path="url(#clip170)" d="M798.007 314.665 L798.007 318.647 Q796.201 317.651 794.373 317.165 Q792.567 316.656 790.715 316.656 Q786.572 316.656 784.28 319.295 Q781.988 321.911 781.988 326.656 Q781.988 331.401 784.28 334.04 Q786.572 336.656 790.715 336.656 Q792.567 336.656 794.373 336.17 Q796.201 335.661 798.007 334.665 L798.007 338.6 Q796.225 339.434 794.303 339.85 Q792.405 340.267 790.252 340.267 Q784.396 340.267 780.947 336.586 Q777.498 332.906 777.498 326.656 Q777.498 320.313 780.97 316.679 Q784.465 313.045 790.53 313.045 Q792.498 313.045 794.373 313.462 Q796.248 313.855 798.007 314.665 Z" fill="#000000" fill-rule="nonzero" fill-opacity="1"></path><path clip-path="url(#clip170)" d="M804.974 329.364 L804.974 313.67 L809.234 313.67 L809.234 329.202 Q809.234 332.883 810.669 334.735 Q812.104 336.563 814.974 336.563 Q818.423 336.563 820.414 334.364 Q822.428 332.165 822.428 328.369 L822.428 313.67 L826.687 313.67 L826.687 339.596 L822.428 339.596 L822.428 335.614 Q820.877 337.975 818.817 339.133 Q816.78 340.267 814.072 340.267 Q809.604 340.267 807.289 337.489 Q804.974 334.711 804.974 329.364 M815.692 313.045 L815.692 313.045 Z" fill="#000000" fill-rule="nonzero" fill-opacity="1"></path><path clip-path="url(#clip170)" d="M835.46 313.67 L839.72 313.67 L839.72 339.596 L835.46 339.596 L835.46 313.67 M835.46 303.577 L839.72 303.577 L839.72 308.971 L835.46 308.971 L835.46 303.577 Z" fill="#000000" fill-rule="nonzero" fill-opacity="1"></path><path clip-path="url(#clip170)" d="M852.845 306.309 L852.845 313.67 L861.618 313.67 L861.618 316.98 L852.845 316.98 L852.845 331.054 Q852.845 334.225 853.701 335.128 Q854.581 336.031 857.243 336.031 L861.618 336.031 L861.618 339.596 L857.243 339.596 Q852.312 339.596 850.437 337.767 Q848.562 335.915 848.562 331.054 L848.562 316.98 L845.437 316.98 L845.437 313.67 L848.562 313.67 L848.562 306.309 L852.845 306.309 Z" fill="#000000" fill-rule="nonzero" fill-opacity="1"></path></svg>