<svg xmlns="http://www.w3.org/2000/svg" xmlns:xlink="http://www.w3.org/1999/xlink" width="600" height="400" viewBox="0 0 2400 1600">
<defs>
  <clipPath id="clip570">
    <rect x="0" y="0" width="2400" height="1600"></rect>
  </clipPath>
</defs>
<path clip-path="url(#clip570)" d="M0 1600 L2400 1600 L2400 0 L0 0  Z" fill="#ffffff" fill-rule="evenodd" fill-opacity="1"></path>
<defs>
  <clipPath id="clip571">
    <rect x="480" y="0" width="1681" height="1600"></rect>
  </clipPath>
</defs>
<path clip-path="url(#clip570)" d="M289.119 1423.18 L2352.76 1423.18 L2352.76 123.472 L289.119 123.472  Z" fill="#ffffff" fill-rule="evenodd" fill-opacity="1"></path>
<defs>
  <clipPath id="clip572">
    <rect x="289" y="123" width="2065" height="1301"></rect>
  </clipPath>
</defs>
<polyline clip-path="url(#clip572)" style="stroke:#000000; stroke-linecap:round; stroke-linejoin:round; stroke-width:2; stroke-opacity:0.1; fill:none" points="347.524,1423.18 347.524,123.472 "></polyline>
<polyline clip-path="url(#clip572)" style="stroke:#000000; stroke-linecap:round; stroke-linejoin:round; stroke-width:2; stroke-opacity:0.1; fill:none" points="834.231,1423.18 834.231,123.472 "></polyline>
<polyline clip-path="url(#clip572)" style="stroke:#000000; stroke-linecap:round; stroke-linejoin:round; stroke-width:2; stroke-opacity:0.1; fill:none" points="1320.94,1423.18 1320.94,123.472 "></polyline>
<polyline clip-path="url(#clip572)" style="stroke:#000000; stroke-linecap:round; stroke-linejoin:round; stroke-width:2; stroke-opacity:0.1; fill:none" points="1807.64,1423.18 1807.64,123.472 "></polyline>
<polyline clip-path="url(#clip572)" style="stroke:#000000; stroke-linecap:round; stroke-linejoin:round; stroke-width:2; stroke-opacity:0.1; fill:none" points="2294.35,1423.18 2294.35,123.472 "></polyline>
<polyline clip-path="url(#clip572)" style="stroke:#000000; stroke-linecap:round; stroke-linejoin:round; stroke-width:2; stroke-opacity:0.1; fill:none" points="289.119,856.537 2352.76,856.537 "></polyline>
<polyline clip-path="url(#clip572)" style="stroke:#000000; stroke-linecap:round; stroke-linejoin:round; stroke-width:2; stroke-opacity:0.1; fill:none" points="289.119,201.794 2352.76,201.794 "></polyline>
<polyline clip-path="url(#clip570)" style="stroke:#000000; stroke-linecap:round; stroke-linejoin:round; stroke-width:4; stroke-opacity:1; fill:none" points="289.119,1423.18 2352.76,1423.18 "></polyline>
<polyline clip-path="url(#clip570)" style="stroke:#000000; stroke-linecap:round; stroke-linejoin:round; stroke-width:4; stroke-opacity:1; fill:none" points="347.524,1423.18 347.524,1404.28 "></polyline>
<polyline clip-path="url(#clip570)" style="stroke:#000000; stroke-linecap:round; stroke-linejoin:round; stroke-width:4; stroke-opacity:1; fill:none" points="834.231,1423.18 834.231,1404.28 "></polyline>
<polyline clip-path="url(#clip570)" style="stroke:#000000; stroke-linecap:round; stroke-linejoin:round; stroke-width:4; stroke-opacity:1; fill:none" points="1320.94,1423.18 1320.94,1404.28 "></polyline>
<polyline clip-path="url(#clip570)" style="stroke:#000000; stroke-linecap:round; stroke-linejoin:round; stroke-width:4; stroke-opacity:1; fill:none" points="1807.64,1423.18 1807.64,1404.28 "></polyline>
<polyline clip-path="url(#clip570)" style="stroke:#000000; stroke-linecap:round; stroke-linejoin:round; stroke-width:4; stroke-opacity:1; fill:none" points="2294.35,1423.18 2294.35,1404.28 "></polyline>
<path clip-path="url(#clip570)" d="M325.522 1454.1 Q321.911 1454.1 320.082 1457.66 Q318.277 1461.2 318.277 1468.33 Q318.277 1475.44 320.082 1479.01 Q321.911 1482.55 325.522 1482.55 Q329.156 1482.55 330.962 1479.01 Q332.79 1475.44 332.79 1468.33 Q332.79 1461.2 330.962 1457.66 Q329.156 1454.1 325.522 1454.1 M325.522 1450.39 Q331.332 1450.39 334.388 1455 Q337.466 1459.58 337.466 1468.33 Q337.466 1477.06 334.388 1481.67 Q331.332 1486.25 325.522 1486.25 Q319.712 1486.25 316.633 1481.67 Q313.578 1477.06 313.578 1468.33 Q313.578 1459.58 316.633 1455 Q319.712 1450.39 325.522 1450.39 Z" fill="#000000" fill-rule="nonzero" fill-opacity="1"></path><path clip-path="url(#clip570)" d="M345.684 1479.7 L350.568 1479.7 L350.568 1485.58 L345.684 1485.58 L345.684 1479.7 Z" fill="#000000" fill-rule="nonzero" fill-opacity="1"></path><path clip-path="url(#clip570)" d="M361.563 1481.64 L369.202 1481.64 L369.202 1455.28 L360.892 1456.95 L360.892 1452.69 L369.156 1451.02 L373.832 1451.02 L373.832 1481.64 L381.471 1481.64 L381.471 1485.58 L361.563 1485.58 L361.563 1481.64 Z" fill="#000000" fill-rule="nonzero" fill-opacity="1"></path><path clip-path="url(#clip570)" d="M812.414 1454.1 Q808.803 1454.1 806.974 1457.66 Q805.169 1461.2 805.169 1468.33 Q805.169 1475.44 806.974 1479.01 Q808.803 1482.55 812.414 1482.55 Q816.048 1482.55 817.854 1479.01 Q819.682 1475.44 819.682 1468.33 Q819.682 1461.2 817.854 1457.66 Q816.048 1454.1 812.414 1454.1 M812.414 1450.39 Q818.224 1450.39 821.28 1455 Q824.358 1459.58 824.358 1468.33 Q824.358 1477.06 821.28 1481.67 Q818.224 1486.25 812.414 1486.25 Q806.604 1486.25 803.525 1481.67 Q800.47 1477.06 800.47 1468.33 Q800.47 1459.58 803.525 1455 Q806.604 1450.39 812.414 1450.39 Z" fill="#000000" fill-rule="nonzero" fill-opacity="1"></path><path clip-path="url(#clip570)" d="M832.576 1479.7 L837.46 1479.7 L837.46 1485.58 L832.576 1485.58 L832.576 1479.7 Z" fill="#000000" fill-rule="nonzero" fill-opacity="1"></path><path clip-path="url(#clip570)" d="M851.673 1481.64 L867.992 1481.64 L867.992 1485.58 L846.048 1485.58 L846.048 1481.64 Q848.71 1478.89 853.293 1474.26 Q857.9 1469.61 859.08 1468.27 Q861.326 1465.74 862.205 1464.01 Q863.108 1462.25 863.108 1460.56 Q863.108 1457.8 861.164 1456.07 Q859.242 1454.33 856.141 1454.33 Q853.941 1454.33 851.488 1455.09 Q849.057 1455.86 846.279 1457.41 L846.279 1452.69 Q849.104 1451.55 851.557 1450.97 Q854.011 1450.39 856.048 1450.39 Q861.418 1450.39 864.613 1453.08 Q867.807 1455.77 867.807 1460.26 Q867.807 1462.39 866.997 1464.31 Q866.21 1466.2 864.103 1468.8 Q863.525 1469.47 860.423 1472.69 Q857.321 1475.88 851.673 1481.64 Z" fill="#000000" fill-rule="nonzero" fill-opacity="1"></path><path clip-path="url(#clip570)" d="M1298.65 1454.1 Q1295.03 1454.1 1293.21 1457.66 Q1291.4 1461.2 1291.4 1468.33 Q1291.4 1475.44 1293.21 1479.01 Q1295.03 1482.55 1298.65 1482.55 Q1302.28 1482.55 1304.09 1479.01 Q1305.91 1475.44 1305.91 1468.33 Q1305.91 1461.2 1304.09 1457.66 Q1302.28 1454.1 1298.65 1454.1 M1298.65 1450.39 Q1304.46 1450.39 1307.51 1455 Q1310.59 1459.58 1310.59 1468.33 Q1310.59 1477.06 1307.51 1481.67 Q1304.46 1486.25 1298.65 1486.25 Q1292.84 1486.25 1289.76 1481.67 Q1286.7 1477.06 1286.7 1468.33 Q1286.7 1459.58 1289.76 1455 Q1292.84 1450.39 1298.65 1450.39 Z" fill="#000000" fill-rule="nonzero" fill-opacity="1"></path><path clip-path="url(#clip570)" d="M1318.81 1479.7 L1323.69 1479.7 L1323.69 1485.58 L1318.81 1485.58 L1318.81 1479.7 Z" fill="#000000" fill-rule="nonzero" fill-opacity="1"></path><path clip-path="url(#clip570)" d="M1348.04 1466.95 Q1351.4 1467.66 1353.28 1469.93 Q1355.17 1472.2 1355.17 1475.53 Q1355.17 1480.65 1351.66 1483.45 Q1348.14 1486.25 1341.66 1486.25 Q1339.48 1486.25 1337.16 1485.81 Q1334.87 1485.39 1332.42 1484.54 L1332.42 1480.02 Q1334.36 1481.16 1336.68 1481.74 Q1338.99 1482.32 1341.52 1482.32 Q1345.91 1482.32 1348.21 1480.58 Q1350.52 1478.84 1350.52 1475.53 Q1350.52 1472.48 1348.37 1470.77 Q1346.24 1469.03 1342.42 1469.03 L1338.39 1469.03 L1338.39 1465.19 L1342.6 1465.19 Q1346.05 1465.19 1347.88 1463.82 Q1349.71 1462.43 1349.71 1459.84 Q1349.71 1457.18 1347.81 1455.77 Q1345.94 1454.33 1342.42 1454.33 Q1340.5 1454.33 1338.3 1454.75 Q1336.1 1455.16 1333.46 1456.04 L1333.46 1451.88 Q1336.12 1451.14 1338.44 1450.77 Q1340.78 1450.39 1342.84 1450.39 Q1348.16 1450.39 1351.26 1452.83 Q1354.36 1455.23 1354.36 1459.35 Q1354.36 1462.22 1352.72 1464.21 Q1351.08 1466.18 1348.04 1466.95 Z" fill="#000000" fill-rule="nonzero" fill-opacity="1"></path><path clip-path="url(#clip570)" d="M1784.79 1454.1 Q1781.17 1454.1 1779.35 1457.66 Q1777.54 1461.2 1777.54 1468.33 Q1777.54 1475.44 1779.35 1479.01 Q1781.17 1482.55 1784.79 1482.55 Q1788.42 1482.55 1790.23 1479.01 Q1792.05 1475.44 1792.05 1468.33 Q1792.05 1461.2 1790.23 1457.66 Q1788.42 1454.1 1784.79 1454.1 M1784.79 1450.39 Q1790.6 1450.39 1793.65 1455 Q1796.73 1459.58 1796.73 1468.33 Q1796.73 1477.06 1793.65 1481.67 Q1790.6 1486.25 1784.79 1486.25 Q1778.98 1486.25 1775.9 1481.67 Q1772.84 1477.06 1772.84 1468.33 Q1772.84 1459.58 1775.9 1455 Q1778.98 1450.39 1784.79 1450.39 Z" fill="#000000" fill-rule="nonzero" fill-opacity="1"></path><path clip-path="url(#clip570)" d="M1804.95 1479.7 L1809.83 1479.7 L1809.83 1485.58 L1804.95 1485.58 L1804.95 1479.7 Z" fill="#000000" fill-rule="nonzero" fill-opacity="1"></path><path clip-path="url(#clip570)" d="M1832.86 1455.09 L1821.06 1473.54 L1832.86 1473.54 L1832.86 1455.09 M1831.64 1451.02 L1837.52 1451.02 L1837.52 1473.54 L1842.45 1473.54 L1842.45 1477.43 L1837.52 1477.43 L1837.52 1485.58 L1832.86 1485.58 L1832.86 1477.43 L1817.26 1477.43 L1817.26 1472.92 L1831.64 1451.02 Z" fill="#000000" fill-rule="nonzero" fill-opacity="1"></path><path clip-path="url(#clip570)" d="M2272.23 1454.1 Q2268.62 1454.1 2266.79 1457.66 Q2264.99 1461.2 2264.99 1468.33 Q2264.99 1475.44 2266.79 1479.01 Q2268.62 1482.55 2272.23 1482.55 Q2275.87 1482.55 2277.67 1479.01 Q2279.5 1475.44 2279.5 1468.33 Q2279.5 1461.2 2277.67 1457.66 Q2275.87 1454.1 2272.23 1454.1 M2272.23 1450.39 Q2278.04 1450.39 2281.1 1455 Q2284.18 1459.58 2284.18 1468.33 Q2284.18 1477.06 2281.1 1481.67 Q2278.04 1486.25 2272.23 1486.25 Q2266.42 1486.25 2263.34 1481.67 Q2260.29 1477.06 2260.29 1468.33 Q2260.29 1459.58 2263.34 1455 Q2266.42 1450.39 2272.23 1450.39 Z" fill="#000000" fill-rule="nonzero" fill-opacity="1"></path><path clip-path="url(#clip570)" d="M2292.4 1479.7 L2297.28 1479.7 L2297.28 1485.58 L2292.4 1485.58 L2292.4 1479.7 Z" fill="#000000" fill-rule="nonzero" fill-opacity="1"></path><path clip-path="url(#clip570)" d="M2307.51 1451.02 L2325.87 1451.02 L2325.87 1454.96 L2311.79 1454.96 L2311.79 1463.43 Q2312.81 1463.08 2313.83 1462.92 Q2314.85 1462.73 2315.87 1462.73 Q2321.65 1462.73 2325.03 1465.9 Q2328.41 1469.08 2328.41 1474.49 Q2328.41 1480.07 2324.94 1483.17 Q2321.47 1486.25 2315.15 1486.25 Q2312.97 1486.25 2310.71 1485.88 Q2308.46 1485.51 2306.05 1484.77 L2306.05 1480.07 Q2308.14 1481.2 2310.36 1481.76 Q2312.58 1482.32 2315.06 1482.32 Q2319.06 1482.32 2321.4 1480.21 Q2323.74 1478.1 2323.74 1474.49 Q2323.74 1470.88 2321.4 1468.77 Q2319.06 1466.67 2315.06 1466.67 Q2313.18 1466.67 2311.31 1467.08 Q2309.46 1467.5 2307.51 1468.38 L2307.51 1451.02 Z" fill="#000000" fill-rule="nonzero" fill-opacity="1"></path><path clip-path="url(#clip570)" d="M1331.38 1537.87 Q1330.39 1537.3 1329.21 1537.04 Q1328.07 1536.76 1326.67 1536.76 Q1321.7 1536.76 1319.03 1540 Q1316.39 1543.22 1316.39 1549.27 L1316.39 1568.04 L1310.5 1568.04 L1310.5 1532.4 L1316.39 1532.4 L1316.39 1537.93 Q1318.23 1534.69 1321.19 1533.13 Q1324.15 1531.54 1328.39 1531.54 Q1328.99 1531.54 1329.72 1531.63 Q1330.45 1531.7 1331.35 1531.85 L1331.38 1537.87 Z" fill="#000000" fill-rule="nonzero" fill-opacity="1"></path><polyline clip-path="url(#clip570)" style="stroke:#000000; stroke-linecap:round; stroke-linejoin:round; stroke-width:4; stroke-opacity:1; fill:none" points="289.119,1423.18 289.119,123.472 "></polyline>
<polyline clip-path="url(#clip570)" style="stroke:#000000; stroke-linecap:round; stroke-linejoin:round; stroke-width:4; stroke-opacity:1; fill:none" points="289.119,856.537 308.017,856.537 "></polyline>
<polyline clip-path="url(#clip570)" style="stroke:#000000; stroke-linecap:round; stroke-linejoin:round; stroke-width:4; stroke-opacity:1; fill:none" points="289.119,201.794 308.017,201.794 "></polyline>
<path clip-path="url(#clip570)" d="M114.931 876.33 L122.57 876.33 L122.57 849.964 L114.26 851.631 L114.26 847.372 L122.524 845.705 L127.2 845.705 L127.2 876.33 L134.839 876.33 L134.839 880.265 L114.931 880.265 L114.931 876.33 Z" fill="#000000" fill-rule="nonzero" fill-opacity="1"></path><path clip-path="url(#clip570)" d="M154.283 848.784 Q150.672 848.784 148.843 852.348 Q147.038 855.89 147.038 863.02 Q147.038 870.126 148.843 873.691 Q150.672 877.232 154.283 877.232 Q157.917 877.232 159.723 873.691 Q161.552 870.126 161.552 863.02 Q161.552 855.89 159.723 852.348 Q157.917 848.784 154.283 848.784 M154.283 845.08 Q160.093 845.08 163.149 849.686 Q166.227 854.27 166.227 863.02 Q166.227 871.746 163.149 876.353 Q160.093 880.936 154.283 880.936 Q148.473 880.936 145.394 876.353 Q142.339 871.746 142.339 863.02 Q142.339 854.27 145.394 849.686 Q148.473 845.08 154.283 845.08 Z" fill="#000000" fill-rule="nonzero" fill-opacity="1"></path><path clip-path="url(#clip570)" d="M166.227 839.181 L190.339 839.181 L190.339 842.379 L166.227 842.379 L166.227 839.181 Z" fill="#000000" fill-rule="nonzero" fill-opacity="1"></path><path clip-path="url(#clip570)" d="M210.05 837.714 Q212.777 838.297 214.3 840.14 Q215.842 841.984 215.842 844.692 Q215.842 848.848 212.984 851.124 Q210.125 853.4 204.859 853.4 Q203.091 853.4 201.21 853.043 Q199.348 852.704 197.354 852.008 L197.354 848.341 Q198.934 849.262 200.815 849.732 Q202.696 850.203 204.746 850.203 Q208.319 850.203 210.181 848.792 Q212.062 847.381 212.062 844.692 Q212.062 842.209 210.313 840.817 Q208.583 839.407 205.479 839.407 L202.207 839.407 L202.207 836.285 L205.63 836.285 Q208.432 836.285 209.918 835.175 Q211.404 834.047 211.404 831.94 Q211.404 829.777 209.861 828.63 Q208.338 827.464 205.479 827.464 Q203.918 827.464 202.132 827.802 Q200.345 828.141 198.201 828.856 L198.201 825.47 Q200.364 824.868 202.244 824.568 Q204.144 824.267 205.818 824.267 Q210.144 824.267 212.664 826.241 Q215.184 828.197 215.184 831.545 Q215.184 833.877 213.849 835.495 Q212.513 837.094 210.05 837.714 Z" fill="#000000" fill-rule="nonzero" fill-opacity="1"></path><path clip-path="url(#clip570)" d="M223.046 848.077 L227.014 848.077 L227.014 852.854 L223.046 852.854 L223.046 848.077 Z" fill="#000000" fill-rule="nonzero" fill-opacity="1"></path><path clip-path="url(#clip570)" d="M243.415 827.276 Q240.481 827.276 238.995 830.172 Q237.528 833.05 237.528 838.843 Q237.528 844.617 238.995 847.513 Q240.481 850.391 243.415 850.391 Q246.367 850.391 247.834 847.513 Q249.32 844.617 249.32 838.843 Q249.32 833.05 247.834 830.172 Q246.367 827.276 243.415 827.276 M243.415 824.267 Q248.135 824.267 250.618 828.009 Q253.119 831.733 253.119 838.843 Q253.119 845.933 250.618 849.676 Q248.135 853.4 243.415 853.4 Q238.694 853.4 236.192 849.676 Q233.71 845.933 233.71 838.843 Q233.71 831.733 236.192 828.009 Q238.694 824.267 243.415 824.267 Z" fill="#000000" fill-rule="nonzero" fill-opacity="1"></path><path clip-path="url(#clip570)" d="M115.74 221.586 L123.379 221.586 L123.379 195.22 L115.069 196.887 L115.069 192.628 L123.333 190.961 L128.009 190.961 L128.009 221.586 L135.647 221.586 L135.647 225.521 L115.74 225.521 L115.74 221.586 Z" fill="#000000" fill-rule="nonzero" fill-opacity="1"></path><path clip-path="url(#clip570)" d="M155.092 194.04 Q151.481 194.04 149.652 197.605 Q147.846 201.146 147.846 208.276 Q147.846 215.382 149.652 218.947 Q151.481 222.489 155.092 222.489 Q158.726 222.489 160.532 218.947 Q162.36 215.382 162.36 208.276 Q162.36 201.146 160.532 197.605 Q158.726 194.04 155.092 194.04 M155.092 190.336 Q160.902 190.336 163.958 194.943 Q167.036 199.526 167.036 208.276 Q167.036 217.003 163.958 221.609 Q160.902 226.193 155.092 226.193 Q149.282 226.193 146.203 221.609 Q143.147 217.003 143.147 208.276 Q143.147 199.526 146.203 194.943 Q149.282 190.336 155.092 190.336 Z" fill="#000000" fill-rule="nonzero" fill-opacity="1"></path><path clip-path="url(#clip570)" d="M167.036 184.438 L191.148 184.438 L191.148 187.635 L167.036 187.635 L167.036 184.438 Z" fill="#000000" fill-rule="nonzero" fill-opacity="1"></path><path clip-path="url(#clip570)" d="M202.621 194.913 L215.88 194.913 L215.88 198.111 L198.05 198.111 L198.05 194.913 Q200.213 192.675 203.937 188.914 Q207.68 185.133 208.639 184.043 Q210.463 181.993 211.178 180.582 Q211.912 179.153 211.912 177.78 Q211.912 175.541 210.332 174.131 Q208.771 172.72 206.25 172.72 Q204.464 172.72 202.47 173.341 Q200.495 173.962 198.238 175.222 L198.238 171.385 Q200.533 170.463 202.526 169.993 Q204.52 169.523 206.175 169.523 Q210.539 169.523 213.134 171.705 Q215.73 173.886 215.73 177.535 Q215.73 179.265 215.071 180.826 Q214.432 182.369 212.72 184.475 Q212.25 185.021 209.73 187.635 Q207.21 190.23 202.621 194.913 Z" fill="#000000" fill-rule="nonzero" fill-opacity="1"></path><path clip-path="url(#clip570)" d="M223.854 193.334 L227.823 193.334 L227.823 198.111 L223.854 198.111 L223.854 193.334 Z" fill="#000000" fill-rule="nonzero" fill-opacity="1"></path><path clip-path="url(#clip570)" d="M236.136 170.031 L251.051 170.031 L251.051 173.228 L239.615 173.228 L239.615 180.112 Q240.443 179.83 241.27 179.698 Q242.098 179.548 242.926 179.548 Q247.627 179.548 250.373 182.124 Q253.119 184.701 253.119 189.102 Q253.119 193.635 250.298 196.155 Q247.477 198.656 242.343 198.656 Q240.575 198.656 238.731 198.355 Q236.907 198.054 234.951 197.453 L234.951 193.635 Q236.644 194.556 238.449 195.008 Q240.255 195.459 242.267 195.459 Q245.521 195.459 247.421 193.747 Q249.32 192.036 249.32 189.102 Q249.32 186.168 247.421 184.456 Q245.521 182.745 242.267 182.745 Q240.744 182.745 239.22 183.083 Q237.716 183.422 236.136 184.137 L236.136 170.031 Z" fill="#000000" fill-rule="nonzero" fill-opacity="1"></path><path clip-path="url(#clip570)" d="M22.818 773.326 L46.4666 782.047 L46.4666 764.573 L22.818 773.326 M16.4842 776.954 L16.4842 769.666 L64.0042 751.555 L64.0042 758.239 L51.8138 762.568 L51.8138 783.989 L64.0042 788.317 L64.0042 795.097 L16.4842 776.954 Z" fill="#000000" fill-rule="nonzero" fill-opacity="1"></path><path clip-path="url(#clip570)" d="M1231.01 20.1573 L1219.91 50.2555 L1242.15 50.2555 L1231.01 20.1573 M1226.39 12.096 L1235.67 12.096 L1258.72 72.576 L1250.21 72.576 L1244.7 57.061 L1217.44 57.061 L1211.93 72.576 L1203.3 72.576 L1226.39 12.096 Z" fill="#000000" fill-rule="nonzero" fill-opacity="1"></path><path clip-path="url(#clip570)" d="M1288.25 27.2059 L1296.15 27.2059 L1310.32 65.2844 L1324.5 27.2059 L1332.4 27.2059 L1315.39 72.576 L1305.26 72.576 L1288.25 27.2059 Z" fill="#000000" fill-rule="nonzero" fill-opacity="1"></path><path clip-path="url(#clip570)" d="M1371.61 28.5427 L1371.61 35.5912 Q1368.45 33.9709 1365.05 33.1607 Q1361.65 32.3505 1358 32.3505 Q1352.45 32.3505 1349.66 34.0519 Q1346.9 35.7533 1346.9 39.156 Q1346.9 41.7486 1348.89 43.2475 Q1350.87 44.7058 1356.87 46.0426 L1359.42 46.6097 Q1367.36 48.3111 1370.68 51.4303 Q1374.04 54.509 1374.04 60.0587 Q1374.04 66.3781 1369.02 70.0644 Q1364.04 73.7508 1355.29 73.7508 Q1351.64 73.7508 1347.67 73.0216 Q1343.74 72.3329 1339.37 70.9151 L1339.37 63.2184 Q1343.5 65.3654 1347.51 66.4591 Q1351.52 67.5124 1355.45 67.5124 Q1360.72 67.5124 1363.55 65.73 Q1366.39 63.9071 1366.39 60.6258 Q1366.39 57.5877 1364.32 55.9673 Q1362.3 54.3469 1355.37 52.8481 L1352.78 52.2405 Q1345.85 50.7821 1342.77 47.7845 Q1339.69 44.7463 1339.69 39.4801 Q1339.69 33.0797 1344.23 29.5959 Q1348.77 26.1121 1357.11 26.1121 Q1361.24 26.1121 1364.89 26.7198 Q1368.54 27.3274 1371.61 28.5427 Z" fill="#000000" fill-rule="nonzero" fill-opacity="1"></path><path clip-path="url(#clip570)" d="M1438.58 34.1734 Q1437.32 33.4443 1435.82 33.1202 Q1434.36 32.7556 1432.58 32.7556 Q1426.26 32.7556 1422.86 36.8875 Q1419.5 40.9789 1419.5 48.6757 L1419.5 72.576 L1412 72.576 L1412 27.2059 L1419.5 27.2059 L1419.5 34.2544 Q1421.85 30.1225 1425.61 28.1376 Q1429.38 26.1121 1434.77 26.1121 Q1435.54 26.1121 1436.47 26.2337 Q1437.4 26.3147 1438.54 26.5172 L1438.58 34.1734 Z" fill="#000000" fill-rule="nonzero" fill-opacity="1"></path><circle clip-path="url(#clip572)" cx="347.524" cy="1386.4" r="14.4" fill="#009af9" fill-rule="evenodd" fill-opacity="1" stroke="#000000" stroke-opacity="1" stroke-width="3.2"></circle>
<circle clip-path="url(#clip572)" cx="396.195" cy="1386.4" r="14.4" fill="#009af9" fill-rule="evenodd" fill-opacity="1" stroke="#000000" stroke-opacity="1" stroke-width="3.2"></circle>
<circle clip-path="url(#clip572)" cx="444.866" cy="1386.4" r="14.4" fill="#009af9" fill-rule="evenodd" fill-opacity="1" stroke="#000000" stroke-opacity="1" stroke-width="3.2"></circle>
<circle clip-path="url(#clip572)" cx="493.536" cy="1386.4" r="14.4" fill="#009af9" fill-rule="evenodd" fill-opacity="1" stroke="#000000" stroke-opacity="1" stroke-width="3.2"></circle>
<circle clip-path="url(#clip572)" cx="542.207" cy="1386.4" r="14.4" fill="#009af9" fill-rule="evenodd" fill-opacity="1" stroke="#000000" stroke-opacity="1" stroke-width="3.2"></circle>
<circle clip-path="url(#clip572)" cx="590.878" cy="1386.4" r="14.4" fill="#009af9" fill-rule="evenodd" fill-opacity="1" stroke="#000000" stroke-opacity="1" stroke-width="3.2"></circle>
<circle clip-path="url(#clip572)" cx="639.548" cy="1386.4" r="14.4" fill="#009af9" fill-rule="evenodd" fill-opacity="1" stroke="#000000" stroke-opacity="1" stroke-width="3.2"></circle>
<circle clip-path="url(#clip572)" cx="688.219" cy="1386.4" r="14.4" fill="#009af9" fill-rule="evenodd" fill-opacity="1" stroke="#000000" stroke-opacity="1" stroke-width="3.2"></circle>
<circle clip-path="url(#clip572)" cx="736.89" cy="1386.4" r="14.4" fill="#009af9" fill-rule="evenodd" fill-opacity="1" stroke="#000000" stroke-opacity="1" stroke-width="3.2"></circle>
<circle clip-path="url(#clip572)" cx="785.56" cy="1386.4" r="14.4" fill="#009af9" fill-rule="evenodd" fill-opacity="1" stroke="#000000" stroke-opacity="1" stroke-width="3.2"></circle>
<circle clip-path="url(#clip572)" cx="834.231" cy="1384.99" r="14.4" fill="#009af9" fill-rule="evenodd" fill-opacity="1" stroke="#000000" stroke-opacity="1" stroke-width="3.2"></circle>
<circle clip-path="url(#clip572)" cx="882.902" cy="1355.18" r="14.4" fill="#009af9" fill-rule="evenodd" fill-opacity="1" stroke="#000000" stroke-opacity="1" stroke-width="3.2"></circle>
<circle clip-path="url(#clip572)" cx="931.572" cy="1323.78" r="14.4" fill="#009af9" fill-rule="evenodd" fill-opacity="1" stroke="#000000" stroke-opacity="1" stroke-width="3.2"></circle>
<circle clip-path="url(#clip572)" cx="980.243" cy="1292.11" r="14.4" fill="#009af9" fill-rule="evenodd" fill-opacity="1" stroke="#000000" stroke-opacity="1" stroke-width="3.2"></circle>
<circle clip-path="url(#clip572)" cx="1028.91" cy="1257.97" r="14.4" fill="#009af9" fill-rule="evenodd" fill-opacity="1" stroke="#000000" stroke-opacity="1" stroke-width="3.2"></circle>
<circle clip-path="url(#clip572)" cx="1077.58" cy="1223.19" r="14.4" fill="#009af9" fill-rule="evenodd" fill-opacity="1" stroke="#000000" stroke-opacity="1" stroke-width="3.2"></circle>
<circle clip-path="url(#clip572)" cx="1126.25" cy="1188.41" r="14.4" fill="#009af9" fill-rule="evenodd" fill-opacity="1" stroke="#000000" stroke-opacity="1" stroke-width="3.2"></circle>
<circle clip-path="url(#clip572)" cx="1174.93" cy="1153.63" r="14.4" fill="#009af9" fill-rule="evenodd" fill-opacity="1" stroke="#000000" stroke-opacity="1" stroke-width="3.2"></circle>
<circle clip-path="url(#clip572)" cx="1223.6" cy="1117.25" r="14.4" fill="#009af9" fill-rule="evenodd" fill-opacity="1" stroke="#000000" stroke-opacity="1" stroke-width="3.2"></circle>
<circle clip-path="url(#clip572)" cx="1272.27" cy="1079.51" r="14.4" fill="#009af9" fill-rule="evenodd" fill-opacity="1" stroke="#000000" stroke-opacity="1" stroke-width="3.2"></circle>
<circle clip-path="url(#clip572)" cx="1320.94" cy="1041.58" r="14.4" fill="#009af9" fill-rule="evenodd" fill-opacity="1" stroke="#000000" stroke-opacity="1" stroke-width="3.2"></circle>
<circle clip-path="url(#clip572)" cx="1369.61" cy="1003.66" r="14.4" fill="#009af9" fill-rule="evenodd" fill-opacity="1" stroke="#000000" stroke-opacity="1" stroke-width="3.2"></circle>
<circle clip-path="url(#clip572)" cx="1418.28" cy="962.752" r="14.4" fill="#009af9" fill-rule="evenodd" fill-opacity="1" stroke="#000000" stroke-opacity="1" stroke-width="3.2"></circle>
<circle clip-path="url(#clip572)" cx="1466.95" cy="921.793" r="14.4" fill="#009af9" fill-rule="evenodd" fill-opacity="1" stroke="#000000" stroke-opacity="1" stroke-width="3.2"></circle>
<circle clip-path="url(#clip572)" cx="1515.62" cy="880.722" r="14.4" fill="#009af9" fill-rule="evenodd" fill-opacity="1" stroke="#000000" stroke-opacity="1" stroke-width="3.2"></circle>
<circle clip-path="url(#clip572)" cx="1564.29" cy="838.988" r="14.4" fill="#009af9" fill-rule="evenodd" fill-opacity="1" stroke="#000000" stroke-opacity="1" stroke-width="3.2"></circle>
<circle clip-path="url(#clip572)" cx="1612.96" cy="796.975" r="14.4" fill="#009af9" fill-rule="evenodd" fill-opacity="1" stroke="#000000" stroke-opacity="1" stroke-width="3.2"></circle>
<circle clip-path="url(#clip572)" cx="1661.63" cy="754.127" r="14.4" fill="#009af9" fill-rule="evenodd" fill-opacity="1" stroke="#000000" stroke-opacity="1" stroke-width="3.2"></circle>
<circle clip-path="url(#clip572)" cx="1710.3" cy="711.28" r="14.4" fill="#009af9" fill-rule="evenodd" fill-opacity="1" stroke="#000000" stroke-opacity="1" stroke-width="3.2"></circle>
<circle clip-path="url(#clip572)" cx="1758.97" cy="667.949" r="14.4" fill="#009af9" fill-rule="evenodd" fill-opacity="1" stroke="#000000" stroke-opacity="1" stroke-width="3.2"></circle>
<circle clip-path="url(#clip572)" cx="1807.64" cy="622.83" r="14.4" fill="#009af9" fill-rule="evenodd" fill-opacity="1" stroke="#000000" stroke-opacity="1" stroke-width="3.2"></circle>
<circle clip-path="url(#clip572)" cx="1856.32" cy="577.701" r="14.4" fill="#009af9" fill-rule="evenodd" fill-opacity="1" stroke="#000000" stroke-opacity="1" stroke-width="3.2"></circle>
<circle clip-path="url(#clip572)" cx="1904.99" cy="532.533" r="14.4" fill="#009af9" fill-rule="evenodd" fill-opacity="1" stroke="#000000" stroke-opacity="1" stroke-width="3.2"></circle>
<circle clip-path="url(#clip572)" cx="1953.66" cy="487.364" r="14.4" fill="#009af9" fill-rule="evenodd" fill-opacity="1" stroke="#000000" stroke-opacity="1" stroke-width="3.2"></circle>
<circle clip-path="url(#clip572)" cx="2002.33" cy="441.519" r="14.4" fill="#009af9" fill-rule="evenodd" fill-opacity="1" stroke="#000000" stroke-opacity="1" stroke-width="3.2"></circle>
<circle clip-path="url(#clip572)" cx="2051" cy="395.113" r="14.4" fill="#009af9" fill-rule="evenodd" fill-opacity="1" stroke="#000000" stroke-opacity="1" stroke-width="3.2"></circle>
<circle clip-path="url(#clip572)" cx="2099.67" cy="348.339" r="14.4" fill="#009af9" fill-rule="evenodd" fill-opacity="1" stroke="#000000" stroke-opacity="1" stroke-width="3.2"></circle>
<circle clip-path="url(#clip572)" cx="2148.34" cy="301.565" r="14.4" fill="#009af9" fill-rule="evenodd" fill-opacity="1" stroke="#000000" stroke-opacity="1" stroke-width="3.2"></circle>
<circle clip-path="url(#clip572)" cx="2197.01" cy="254.79" r="14.4" fill="#009af9" fill-rule="evenodd" fill-opacity="1" stroke="#000000" stroke-opacity="1" stroke-width="3.2"></circle>
<circle clip-path="url(#clip572)" cx="2245.68" cy="207.597" r="14.4" fill="#009af9" fill-rule="evenodd" fill-opacity="1" stroke="#000000" stroke-opacity="1" stroke-width="3.2"></circle>
<circle clip-path="url(#clip572)" cx="2294.35" cy="160.256" r="14.4" fill="#009af9" fill-rule="evenodd" fill-opacity="1" stroke="#000000" stroke-opacity="1" stroke-width="3.2"></circle>
<path clip-path="url(#clip570)" d="M357.907 270.476 L668.506 270.476 L668.506 166.796 L357.907 166.796  Z" fill="#ffffff" fill-rule="evenodd" fill-opacity="1"></path>
<polyline clip-path="url(#clip570)" style="stroke:#000000; stroke-linecap:round; stroke-linejoin:round; stroke-width:4; stroke-opacity:1; fill:none" points="357.907,270.476 668.506,270.476 668.506,166.796 357.907,166.796 357.907,270.476 "></polyline>
<circle clip-path="url(#clip570)" cx="449.624" cy="218.636" r="20.48" fill="#009af9" fill-rule="evenodd" fill-opacity="1" stroke="#000000" stroke-opacity="1" stroke-width="4.55111"></circle>
<path clip-path="url(#clip570)" d="M546.018 205.198 L546.018 232.073 L551.666 232.073 Q558.818 232.073 562.129 228.832 Q565.462 225.592 565.462 218.601 Q565.462 211.657 562.129 208.439 Q558.818 205.198 551.666 205.198 L546.018 205.198 M541.342 201.356 L550.948 201.356 Q560.994 201.356 565.693 205.546 Q570.392 209.712 570.392 218.601 Q570.392 227.536 565.67 231.726 Q560.948 235.916 550.948 235.916 L541.342 235.916 L541.342 201.356 Z" fill="#000000" fill-rule="nonzero" fill-opacity="1"></path><path clip-path="url(#clip570)" d="M589.443 222.883 Q584.281 222.883 582.29 224.064 Q580.3 225.244 580.3 228.092 Q580.3 230.36 581.781 231.703 Q583.286 233.022 585.855 233.022 Q589.397 233.022 591.527 230.522 Q593.679 227.999 593.679 223.832 L593.679 222.883 L589.443 222.883 M597.939 221.124 L597.939 235.916 L593.679 235.916 L593.679 231.981 Q592.221 234.342 590.045 235.476 Q587.869 236.587 584.721 236.587 Q580.74 236.587 578.378 234.365 Q576.04 232.119 576.04 228.369 Q576.04 223.994 578.957 221.772 Q581.897 219.55 587.707 219.55 L593.679 219.55 L593.679 219.133 Q593.679 216.194 591.735 214.596 Q589.814 212.976 586.318 212.976 Q584.096 212.976 581.99 213.508 Q579.883 214.041 577.939 215.106 L577.939 211.17 Q580.277 210.268 582.476 209.828 Q584.675 209.365 586.758 209.365 Q592.383 209.365 595.161 212.282 Q597.939 215.198 597.939 221.124 Z" fill="#000000" fill-rule="nonzero" fill-opacity="1"></path><path clip-path="url(#clip570)" d="M610.925 202.629 L610.925 209.99 L619.698 209.99 L619.698 213.3 L610.925 213.3 L610.925 227.374 Q610.925 230.545 611.781 231.448 Q612.661 232.351 615.323 232.351 L619.698 232.351 L619.698 235.916 L615.323 235.916 Q610.392 235.916 608.517 234.087 Q606.642 232.235 606.642 227.374 L606.642 213.3 L603.517 213.3 L603.517 209.99 L606.642 209.99 L606.642 202.629 L610.925 202.629 Z" fill="#000000" fill-rule="nonzero" fill-opacity="1"></path><path clip-path="url(#clip570)" d="M637.082 222.883 Q631.92 222.883 629.929 224.064 Q627.938 225.244 627.938 228.092 Q627.938 230.36 629.42 231.703 Q630.924 233.022 633.494 233.022 Q637.036 233.022 639.165 230.522 Q641.318 227.999 641.318 223.832 L641.318 222.883 L637.082 222.883 M645.577 221.124 L645.577 235.916 L641.318 235.916 L641.318 231.981 Q639.86 234.342 637.684 235.476 Q635.508 236.587 632.36 236.587 Q628.378 236.587 626.017 234.365 Q623.679 232.119 623.679 228.369 Q623.679 223.994 626.596 221.772 Q629.536 219.55 635.346 219.55 L641.318 219.55 L641.318 219.133 Q641.318 216.194 639.373 214.596 Q637.452 212.976 633.957 212.976 Q631.735 212.976 629.628 213.508 Q627.522 214.041 625.577 215.106 L625.577 211.17 Q627.915 210.268 630.114 209.828 Q632.313 209.365 634.397 209.365 Q640.022 209.365 642.799 212.282 Q645.577 215.198 645.577 221.124 Z" fill="#000000" fill-rule="nonzero" fill-opacity="1"></path></svg>